<svg xmlns="http://www.w3.org/2000/svg" width="207" height="147" viewBox="0 0 207 147">
  <g fill="none" fill-rule="evenodd">
    <polygon fill="#FF0000" points="82.75 146.04 206.33 146.04 206.33 122.64 94.5 122.64"/>
    <rect width="79.77" height="23.4" x="106.42" y="78.04" fill="#FF0000"/>
    <rect width="99.91" height="23.4" x="106.42" y="33.43" fill="#FF0000"/>
    <polygon fill="#49B3E6" points=".87 112.37 .87 0 113.3 0 113.3 112.37"/>
    <polygon fill="#231F20" points="113.31 112.37 82.75 146.04 86.55 112.37"/>
    <path fill="#FFFFFF" d="M47.37,70.82 L38.68,54.73 L20.31,54.73 L36,83.46 C36.4420611,84.2675828 37.2893437,84.7698182 38.21,84.77 L55.87,84.77 C56.7261355,84.7716755 57.524562,84.3385668 57.99,83.62 L93.87,28 L74.93,28 L47.37,70.82 Z"/>
  </g>
</svg>
