<svg width="440" height="440" viewBox="0 0 440 440" fill="none" xmlns="http://www.w3.org/2000/svg">
<rect width="440" height="440" fill="#E5E5E5"/>
<g clip-path="url(#clip0)">
<rect width="440" height="440" fill="#2E77FC"/>
<circle cx="244" cy="228" r="808" fill="url(#paint0_linear)" fill-opacity="0.05"/>
<circle cx="244" cy="228" r="588" fill="url(#paint1_linear)" fill-opacity="0.1"/>
<circle cx="220" cy="220" r="334" fill="url(#paint2_linear)" fill-opacity="0.2"/>
<circle cx="220" cy="220" r="126" fill="white" fill-opacity="0.5"/>
<path fill-rule="evenodd" clip-rule="evenodd" d="M174.532 196.613C177.553 189.585 181.682 183.576 186.918 178.584C192.155 173.593 198.323 169.748 205.423 167.049C212.523 164.35 220.101 163 228.157 163C236.415 163 244.219 164.35 251.571 167.049C258.922 169.748 265.065 173.39 270 177.973L247.946 204.864C245.932 202.216 243.414 200.204 240.393 198.829C237.372 197.454 233.998 196.766 230.272 196.766C227.251 196.766 224.431 197.301 221.813 198.371C219.194 199.44 216.903 200.993 214.94 203.031C212.976 205.068 211.44 207.538 210.332 210.441C209.225 213.344 208.671 216.578 208.671 220.143C208.671 223.708 209.25 226.891 210.408 229.692C211.566 232.493 213.127 234.912 215.091 236.95C217.054 238.987 219.345 240.54 221.964 241.61C224.582 242.679 227.351 243.214 230.272 243.214C234.401 243.214 237.951 242.348 240.921 240.617C243.892 238.885 246.234 236.848 247.946 234.505L270 261.243C265.166 266.132 259.225 270.028 252.175 272.931C245.126 275.834 237.12 277.286 228.157 277.286C220.101 277.286 212.523 275.911 205.423 273.16C198.323 270.41 192.155 266.514 186.918 261.472C181.682 256.43 177.553 250.42 174.532 243.443C171.511 236.466 170 228.699 170 220.143C170 211.485 171.511 203.642 174.532 196.613Z" fill="#2E77FC"/>
</g>
<defs>
<linearGradient id="paint0_linear" x1="73.8947" y1="759.579" x2="697.614" y2="-459.509" gradientUnits="userSpaceOnUse">
<stop stop-color="white"/>
<stop offset="1" stop-color="white" stop-opacity="0"/>
</linearGradient>
<linearGradient id="paint1_linear" x1="244" y1="-360" x2="-301.494" y2="228" gradientUnits="userSpaceOnUse">
<stop stop-color="white"/>
<stop offset="1" stop-color="white" stop-opacity="0"/>
</linearGradient>
<linearGradient id="paint2_linear" x1="7.5" y1="10.5" x2="434" y2="421.5" gradientUnits="userSpaceOnUse">
<stop offset="0.135885" stop-color="white"/>
<stop offset="1" stop-color="white" stop-opacity="0"/>
</linearGradient>
<clipPath id="clip0">
<rect width="440" height="440" fill="white"/>
</clipPath>
</defs>
</svg>
