<svg width="440" height="440" viewBox="0 0 440 440" fill="none" xmlns="http://www.w3.org/2000/svg">
<g clip-path="url(#clip0_1596_72899)">
<path d="M440 0H0V440H440V0Z" fill="#E5E5E5"/>
<mask id="mask0_1596_72899" style="mask-type:luminance" maskUnits="userSpaceOnUse" x="0" y="0" width="440" height="440">
<path d="M440 0H0V440H440V0Z" fill="white"/>
</mask>
<g mask="url(#mask0_1596_72899)">
<path d="M440 0H0V440H440V0Z" fill="#2E77FC"/>
<path d="M244 1036C690.246 1036 1052 674.246 1052 228C1052 -218.246 690.246 -580 244 -580C-202.246 -580 -564 -218.246 -564 228C-564 674.246 -202.246 1036 244 1036Z" fill="url(#paint0_linear_1596_72899)" fill-opacity="0.05"/>
<path d="M244 816C568.743 816 832 552.743 832 228C832 -96.7434 568.743 -360 244 -360C-80.7434 -360 -344 -96.7434 -344 228C-344 552.743 -80.7434 816 244 816Z" fill="url(#paint1_linear_1596_72899)" fill-opacity="0.1"/>
<path d="M220 554C404.463 554 554 404.463 554 220C554 35.5369 404.463 -114 220 -114C35.5369 -114 -114 35.5369 -114 220C-114 404.463 35.5369 554 220 554Z" fill="url(#paint2_linear_1596_72899)" fill-opacity="0.2"/>
<path d="M220 346C289.588 346 346 289.588 346 220C346 150.412 289.588 94 220 94C150.412 94 94 150.412 94 220C94 289.588 150.412 346 220 346Z" fill="white" fill-opacity="0.5"/>
<path d="M251.775 230.908C245.616 237.066 235.631 237.066 229.472 230.908L188.486 189.922C182.328 183.763 182.328 173.777 188.486 167.619C194.645 161.46 204.63 161.46 210.789 167.619L251.775 208.605C257.933 214.763 257.933 224.749 251.775 230.908Z" fill="#FBD202"/>
<path d="M251.775 208.607C257.933 214.765 257.933 224.751 251.775 230.909L210.784 271.9C204.625 278.059 194.64 278.059 188.481 271.9C182.323 265.742 182.323 255.756 188.481 249.598L229.472 208.607C235.63 202.448 245.616 202.448 251.775 208.607Z" fill="#F17522"/>
<path fill-rule="evenodd" clip-rule="evenodd" d="M255.238 213.824C254.467 211.926 253.313 210.146 251.773 208.607C245.615 202.448 235.629 202.448 229.471 208.607L218.319 219.758L229.471 230.909C235.629 237.068 245.615 237.068 251.773 230.909C256.392 226.29 257.546 219.519 255.238 213.824Z" fill="#EA4918"/>
</g>
</g>
<defs>
<linearGradient id="paint0_linear_1596_72899" x1="73.8947" y1="759.579" x2="697.614" y2="-459.509" gradientUnits="userSpaceOnUse">
<stop stop-color="white"/>
<stop offset="1" stop-color="white" stop-opacity="0"/>
</linearGradient>
<linearGradient id="paint1_linear_1596_72899" x1="244" y1="-360" x2="-301.494" y2="228" gradientUnits="userSpaceOnUse">
<stop stop-color="white"/>
<stop offset="1" stop-color="white" stop-opacity="0"/>
</linearGradient>
<linearGradient id="paint2_linear_1596_72899" x1="7.5" y1="10.5" x2="434" y2="421.5" gradientUnits="userSpaceOnUse">
<stop offset="0.135885" stop-color="white"/>
<stop offset="1" stop-color="white" stop-opacity="0"/>
</linearGradient>
<clipPath id="clip0_1596_72899">
<rect width="440" height="440" fill="white"/>
</clipPath>
</defs>
</svg>
