<svg width="1080" height="1080" viewBox="0 0 1080 1080" fill="none" xmlns="http://www.w3.org/2000/svg">
<path d="M1080 0H0V1080H1080V0Z" fill="#9E9E9E"/>
<path d="M540 996C791.842 996 996 791.842 996 540C996 288.158 791.842 84 540 84C288.158 84 84 288.158 84 540C84 791.842 288.158 996 540 996Z" fill="white" fill-opacity="0.05"/>
<path d="M540 872C723.359 872 872 723.359 872 540C872 356.641 723.359 208 540 208C356.641 208 208 356.641 208 540C208 723.359 356.641 872 540 872Z" fill="white" fill-opacity="0.1"/>
<path d="M540 752C657.084 752 752 657.084 752 540C752 422.916 657.084 328 540 328C422.916 328 328 422.916 328 540C328 657.084 422.916 752 540 752Z" fill="white" fill-opacity="0.2"/>
<path d="M540 666C609.588 666 666 609.588 666 540C666 470.412 609.588 414 540 414C470.412 414 414 470.412 414 540C414 609.588 470.412 666 540 666Z" fill="white" fill-opacity="0.5"/>
<path d="M574.871 551.865C568.081 558.655 557.072 558.655 550.283 551.865L505.097 506.68C498.308 499.89 498.308 488.882 505.097 482.092C511.887 475.303 522.896 475.303 529.685 482.092L574.871 527.278C581.66 534.067 581.66 545.076 574.871 551.865Z" fill="#FBD202"/>
<path d="M574.871 527.279C581.66 534.069 581.66 545.077 574.871 551.867L529.68 597.058C522.89 603.847 511.882 603.847 505.092 597.058C498.303 590.268 498.303 579.259 505.092 572.47L550.283 527.279C557.072 520.49 568.081 520.49 574.871 527.279Z" fill="#F17522"/>
<path fill-rule="evenodd" clip-rule="evenodd" d="M578.688 533.031C577.839 530.939 576.566 528.976 574.869 527.279C568.08 520.49 557.071 520.49 550.281 527.279L537.987 539.573L550.281 551.867C557.071 558.656 568.08 558.656 574.869 551.867C579.961 546.775 581.234 539.31 578.688 533.031Z" fill="#EA4918"/>
</svg>
