<svg width="1080" height="1080" viewBox="0 0 1080 1080" fill="none" xmlns="http://www.w3.org/2000/svg">
<rect width="1080" height="1080" fill="#9e9e9e"/>
<circle cx="540" cy="540" r="456" fill="white" fill-opacity="0.05"/>
<circle cx="540" cy="540" r="332" fill="white" fill-opacity="0.1"/>
<circle cx="540" cy="540" r="212" fill="white" fill-opacity="0.2"/>
<circle cx="540" cy="540" r="126" fill="white" fill-opacity="0.5"/>
<path fill-rule="evenodd" clip-rule="evenodd" d="M494.532 516.613C497.553 509.585 501.682 503.576 506.918 498.584C512.155 493.593 518.323 489.748 525.423 487.049C532.523 484.35 540.101 483 548.157 483C556.415 483 564.219 484.35 571.571 487.049C578.922 489.748 585.065 493.39 590 497.973L567.946 524.864C565.932 522.216 563.414 520.204 560.393 518.829C557.372 517.454 553.998 516.766 550.272 516.766C547.251 516.766 544.431 517.301 541.813 518.371C539.194 519.44 536.903 520.993 534.94 523.031C532.976 525.068 531.44 527.538 530.332 530.441C529.225 533.344 528.671 536.578 528.671 540.143C528.671 543.708 529.25 546.891 530.408 549.692C531.566 552.493 533.127 554.912 535.091 556.95C537.054 558.987 539.345 560.54 541.964 561.61C544.582 562.679 547.351 563.214 550.272 563.214C554.401 563.214 557.951 562.348 560.921 560.617C563.892 558.885 566.234 556.848 567.946 554.505L590 581.243C585.166 586.132 579.225 590.028 572.175 592.931C565.126 595.834 557.12 597.286 548.157 597.286C540.101 597.286 532.523 595.911 525.423 593.16C518.323 590.41 512.155 586.514 506.918 581.472C501.682 576.43 497.553 570.42 494.532 563.443C491.511 556.466 490 548.699 490 540.143C490 531.485 491.511 523.642 494.532 516.613Z" fill="#979797"/>
</svg>
