<svg viewBox="0 0 24 24" xmlns="http://www.w3.org/2000/svg"> <path fill-rule="evenodd" clip-rule="evenodd" d="M8.125 21.2125C9.34167 21.7375 10.6333 22 12 22C13.3833 22 14.6833 21.7375 15.9 21.2125C17.1167 20.6875 18.175 19.9708 19.075 19.0625C19.975 18.1542 20.6875 17.0917 21.2125 15.875C21.7375 14.6583 22 13.3667 22 12C22 10.6167 21.7375 9.31667 21.2125 8.1C20.6875 6.88333 19.975 5.825 19.075 4.925C18.175 4.025 17.1167 3.3125 15.9 2.7875C14.6833 2.2625 13.3917 2 12.025 2C10.6417 2 9.34167 2.2625 8.125 2.7875C6.90833 3.3125 5.84583 4.025 4.9375 4.925C4.02917 5.825 3.3125 6.88333 2.7875 8.1C2.2625 9.31667 2 10.6083 2 11.975C2 13.3583 2.2625 14.6583 2.7875 15.875C3.3125 17.0917 4.02917 18.1542 4.9375 19.0625C5.84583 19.9708 6.90833 20.6875 8.125 21.2125ZM12.825 17H11.325V12.85H7V11.35H11.325V7H12.825V11.35H17V12.85H12.825V17Z" /> </svg>
