<svg viewBox="0 0 24 24" xmlns="http://www.w3.org/2000/svg"><path d="M11.5 21.8847C10.0372 21.8847 8.79327 21.3722 7.76827 20.3472C6.74327 19.3222 6.23077 18.0783 6.23077 16.6155V5.80773C6.23077 4.75533 6.6055 3.85442 7.35495 3.10499C8.10438 2.35555 9.0053 1.98083 10.0577 1.98083C11.1101 1.98083 12.011 2.35555 12.7604 3.10499C13.5099 3.85442 13.8846 4.75533 13.8846 5.80773V15.5578C13.8846 16.2254 13.6541 16.7898 13.193 17.2508C12.7319 17.7119 12.1675 17.9424 11.4997 17.9424C10.832 17.9424 10.2676 17.7119 9.80672 17.2508C9.34584 16.7898 9.1154 16.2254 9.1154 15.5578V5.80773H10.3077V15.5578C10.3077 15.8956 10.4219 16.1788 10.6505 16.4073C10.879 16.6358 11.1622 16.7501 11.5 16.7501C11.8378 16.7501 12.121 16.6358 12.3495 16.4073C12.5781 16.1788 12.6923 15.8956 12.6923 15.5578V5.80773C12.6923 5.07003 12.4376 4.44651 11.928 3.93716C11.4185 3.42779 10.7948 3.17311 10.0569 3.17311C9.31896 3.17311 8.69551 3.42779 8.18652 3.93716C7.67756 4.44651 7.42307 5.07003 7.42307 5.80773V16.6155C7.42307 17.7411 7.82115 18.702 8.6173 19.4982C9.41345 20.2943 10.3743 20.6924 11.5 20.6924C12.6256 20.6924 13.5865 20.2943 14.3827 19.4982C15.1788 18.702 15.5769 17.7411 15.5769 16.6155V5.80773H16.7692V16.6155C16.7692 18.0783 16.2567 19.3222 15.2317 20.3472C14.2067 21.3722 12.9628 21.8847 11.5 21.8847Z" /></svg>
