<svg viewBox="0 0 24 24" xmlns="http://www.w3.org/2000/svg"> <path d="M7.5577 21.5C6.71283 21.5 5.99201 21.2016 5.39522 20.6048C4.79842 20.008 4.50002 19.2871 4.50002 18.4423V5.75C4.50002 4.84743 4.81605 4.08013 5.4481 3.44808C6.08015 2.81603 6.84746 2.5 7.75002 2.5H19.5V16.8846C19.0705 16.8846 18.7035 17.0368 18.399 17.3413C18.0945 17.6458 17.9423 18.0128 17.9423 18.4423C17.9423 18.8718 18.0945 19.2388 18.399 19.5433C18.7035 19.8477 19.0705 20 19.5 20V21.5H7.5577ZM6 15.8443C6.22691 15.6891 6.47018 15.5737 6.7298 15.4981C6.98941 15.4224 7.26538 15.3846 7.5577 15.3846H8.19232V3.99998H7.75002C7.26924 3.99998 6.85737 4.17145 6.51442 4.5144C6.17147 4.85735 6 5.26922 6 5.75V15.8443ZM9.69227 15.3846H18V3.99998H9.69227V15.3846ZM7.5577 20H16.9019C16.7571 19.7731 16.6442 19.5324 16.5634 19.2779C16.4827 19.0234 16.4423 18.7448 16.4423 18.4423C16.4423 18.1564 16.4801 17.882 16.5558 17.6192C16.6314 17.3564 16.7468 17.1115 16.9019 16.8846H7.5577C7.11155 16.8846 6.74039 17.0368 6.44422 17.3413C6.14807 17.6458 6 18.0128 6 18.4423C6 18.8884 6.14807 19.2596 6.44422 19.5558C6.74039 19.8519 7.11155 20 7.5577 20Z" /> </svg>
