<svg viewBox="0 0 24 24" xmlns="http://www.w3.org/2000/svg">
<path d="M8.25 16.8L12 13.05L15.75 16.8L16.8 15.75L13.05 12L16.8 8.25L15.75 7.2L12 10.95L8.25 7.2L7.2 8.25L10.95 12L7.2 15.75L8.25 16.8ZM12 22C10.5833 22 9.26667 21.7458 8.05 21.2375C6.83333 20.7292 5.775 20.025 4.875 19.125C3.975 18.225 3.27083 17.1667 2.7625 15.95C2.25417 14.7333 2 13.4167 2 12C2 10.6 2.25417 9.29167 2.7625 8.075C3.27083 6.85833 3.975 5.8 4.875 4.9C5.775 4 6.83333 3.29167 8.05 2.775C9.26667 2.25833 10.5833 2 12 2C13.4 2 14.7083 2.25833 15.925 2.775C17.1417 3.29167 18.2 4 19.1 4.9C20 5.8 20.7083 6.85833 21.225 8.075C21.7417 9.29167 22 10.6 22 12C22 13.4167 21.7417 14.7333 21.225 15.95C20.7083 17.1667 20 18.225 19.1 19.125C18.2 20.025 17.1417 20.7292 15.925 21.2375C14.7083 21.7458 13.4 22 12 22ZM12 20.5C14.3333 20.5 16.3333 19.6667 18 18C19.6667 16.3333 20.5 14.3333 20.5 12C20.5 9.66667 19.6667 7.66667 18 6C16.3333 4.33333 14.3333 3.5 12 3.5C9.66667 3.5 7.66667 4.33333 6 6C4.33333 7.66667 3.5 9.66667 3.5 12C3.5 14.3333 4.33333 16.3333 6 18C7.66667 19.6667 9.66667 20.5 12 20.5Z" />
</svg>
