<svg xmlns="http://www.w3.org/2000/svg" viewBox="0 0 126 126" fill="none"> <path class="mark-top" d="M97.8707 74.8653C91.0812 81.6547 80.0723 81.6547 73.2829 74.8653L28.0975 29.6799C21.308 22.8904 21.308 11.8815 28.0975 5.09209C34.8869 -1.69736 45.8958 -1.69736 52.6852 5.09209L97.8707 50.2775C104.66 57.067 104.66 68.0758 97.8707 74.8653Z" fill="#FBD202"/> <path class="mark-bottom" d="M97.8706 50.2792C104.66 57.0687 104.66 68.0775 97.8706 74.867L52.6799 120.058C45.8904 126.847 34.8815 126.847 28.0921 120.058C21.3026 113.268 21.3026 102.259 28.0921 95.47L73.2828 50.2792C80.0723 43.4898 91.0812 43.4898 97.8706 50.2792Z" fill="#F17522"/> <path class="mark-dot" fill-rule="evenodd" clip-rule="evenodd" d="M101.688 56.0307C100.839 53.9388 99.5663 51.9766 97.869 50.2792C91.0795 43.4898 80.0706 43.4898 73.2812 50.2792L60.9873 62.5731L73.2812 74.867C80.0706 81.6564 91.0795 81.6564 97.869 74.867C102.961 69.7749 104.234 62.3101 101.688 56.0307Z" fill="#EA4918"/> </svg>
