<svg viewBox="0 0 22 18" xmlns="http://www.w3.org/2000/svg"><path d="M0.708313 17.125V14.6875H2.87498V2.8334C2.87498 2.2948 3.06673 1.83375 3.45023 1.45025C3.83373 1.06675 4.29478 0.875 4.83337 0.875H20.2083V2.5H4.83337C4.73606 2.5 4.65616 2.53124 4.59369 2.59371C4.53122 2.65618 4.49998 2.73608 4.49998 2.8334V14.6875H10.7186V17.125H0.708313ZM14.2811 17.125C14.0038 17.125 13.7712 17.0311 13.5835 16.8433C13.3959 16.6557 13.3021 16.4232 13.3021 16.1457V5.85427C13.3021 5.57676 13.3959 5.3442 13.5835 5.1566C13.7712 4.96883 14.0038 4.87494 14.2811 4.87494H20.3229C20.6002 4.87494 20.8328 4.96883 21.0205 5.1566C21.2081 5.3442 21.3019 5.57676 21.3019 5.85427V16.1457C21.3019 16.4232 21.2081 16.6557 21.0205 16.8433C20.8328 17.0311 20.6002 17.125 20.3229 17.125H14.2811ZM14.9271 14.6875H19.6769V6.49994H14.9271V14.6875Z" /></svg>
