<svg viewBox="0 0 24 24" xmlns="http://www.w3.org/2000/svg"> <path d="M12 2C6.48 2 2 6.48 2 12C2 17.52 6.48 22 12 22C17.52 22 22 17.52 22 12C22 6.48 17.52 2 12 2ZM12 20C7.59 20 4 16.41 4 12C4 7.59 7.59 4 12 4C16.41 4 20 7.59 20 12C20 16.41 16.41 20 12 20Z" /> <path d="M6.99823 14H11.5882L11.0082 17.41V17.61C11.0182 17.87 11.1282 18.12 11.3082 18.31L11.9982 19L16.5982 14C16.8682 13.74 17.0182 13.38 16.9982 13V8C16.9982 6.9 16.0982 6 14.9982 6H9.49823C8.93823 5.97 8.41823 6.29 8.19823 6.8L6.09823 11.7C6.01823 11.85 5.97823 12.03 5.99823 12.2V13C5.99823 13.55 6.44823 14 6.99823 14Z" /> </svg>
