<svg viewBox="0 0 178 164" fill="none" xmlns="http://www.w3.org/2000/svg">
<path d="M156.863 32.5948C176.065 47.1946 184.793 86.7094 169.717 114.163C154.8 141.617 135.807 160.237 86.4033 152.091C37 143.945 51.5001 119 21.3388 94.8027C-8.82247 70.6055 1.18468 39.8947 11.8172 30.3731C22.4497 20.8514 50.0624 29.897 78.786 29.2622C107.668 28.6274 137.503 18.1536 156.863 32.5948Z" fill="#F3F3F3"/>
<path d="M136.5 150.333C130.806 150.333 125.965 148.34 121.979 144.354C117.993 140.368 116 135.528 116 129.833C116 129.036 116.057 128.21 116.171 127.356C116.285 126.502 116.456 125.733 116.683 125.05L68.5083 97.0332C66.5722 98.7415 64.4083 100.08 62.0167 101.048C59.625 102.016 57.1194 102.5 54.5 102.5C48.8056 102.5 43.9653 100.507 39.9792 96.5207C35.9931 92.5346 34 87.6943 34 81.9998C34 76.3054 35.9931 71.4651 39.9792 67.479C43.9653 63.4929 48.8056 61.4998 54.5 61.4998C57.1194 61.4998 59.625 61.9839 62.0167 62.9519C64.4083 63.92 66.5722 65.2582 68.5083 66.9665L116.683 38.9498C116.456 38.2665 116.285 37.4978 116.171 36.6436C116.057 35.7894 116 34.9637 116 34.1665C116 28.4721 117.993 23.6318 121.979 19.6457C125.965 15.6596 130.806 13.6665 136.5 13.6665C142.194 13.6665 147.035 15.6596 151.021 19.6457C155.007 23.6318 157 28.4721 157 34.1665C157 39.8609 155.007 44.7012 151.021 48.6873C147.035 52.6734 142.194 54.6665 136.5 54.6665C133.881 54.6665 131.375 54.1825 128.983 53.2144C126.592 52.2464 124.428 50.9082 122.492 49.1998L74.3167 77.2165C74.5444 77.8998 74.7153 78.6686 74.8292 79.5228C74.9431 80.3769 75 81.2026 75 81.9998C75 82.7971 74.9431 83.6227 74.8292 84.4769C74.7153 85.3311 74.5444 86.0998 74.3167 86.7832L122.492 114.8C124.428 113.091 126.592 111.753 128.983 110.785C131.375 109.817 133.881 109.333 136.5 109.333C142.194 109.333 147.035 111.326 151.021 115.312C155.007 119.298 157 124.139 157 129.833C157 135.528 155.007 140.368 151.021 144.354C147.035 148.34 142.194 150.333 136.5 150.333ZM136.5 40.9998C138.436 40.9998 140.059 40.345 141.369 39.0353C142.678 37.7255 143.333 36.1026 143.333 34.1665C143.333 32.2304 142.678 30.6075 141.369 29.2978C140.059 27.988 138.436 27.3332 136.5 27.3332C134.564 27.3332 132.941 27.988 131.631 29.2978C130.322 30.6075 129.667 32.2304 129.667 34.1665C129.667 36.1026 130.322 37.7255 131.631 39.0353C132.941 40.345 134.564 40.9998 136.5 40.9998ZM54.5 88.8332C56.4361 88.8332 58.059 88.1783 59.3687 86.8686C60.6785 85.5589 61.3333 83.9359 61.3333 81.9998C61.3333 80.0637 60.6785 78.4408 59.3687 77.1311C58.059 75.8214 56.4361 75.1665 54.5 75.1665C52.5639 75.1665 50.941 75.8214 49.6313 77.1311C48.3215 78.4408 47.6667 80.0637 47.6667 81.9998C47.6667 83.9359 48.3215 85.5589 49.6313 86.8686C50.941 88.1783 52.5639 88.8332 54.5 88.8332ZM136.5 136.666C138.436 136.666 140.059 136.012 141.369 134.702C142.678 133.392 143.333 131.769 143.333 129.833C143.333 127.897 142.678 126.274 141.369 124.964C140.059 123.655 138.436 123 136.5 123C134.564 123 132.941 123.655 131.631 124.964C130.322 126.274 129.667 127.897 129.667 129.833C129.667 131.769 130.322 133.392 131.631 134.702C132.941 136.012 134.564 136.666 136.5 136.666Z" fill="#B4B4B4"/>
</svg>
