<svg viewBox="0 0 24 24" xmlns="http://www.w3.org/2000/svg"> <path fill-rule="evenodd" clip-rule="evenodd" d="M1.61362 1.58521L0.199402 2.99942L4.00766 6.80768L4 16C4 17.1 4.9 18 6 18H15.2L17.2 20H2V6.00003H0V11H0.01L0 20C0 21.1 0.9 22 2 22H19.2L20.5968 23.3968L22.011 21.9826L1.61362 1.58521ZM13.2 16L12.2 15H7L9.22858 12.0286L6 8.80002V16H13.2Z" /> <path d="M18.7927 16H22V6.00003H13.17L11.17 4.00003H6.79268L5.04069 2.24804C5.3251 2.09008 5.65204 2.00003 6 2.00003H12L14 4.00003H22C23.1 4.00003 24 4.90003 24 6.00003V16C24 17.1 23.1 18 22 18H20.7927L18.7927 16Z" /> <path d="M15.5911 12.7984L17.7927 15H21L17.5 10.5L15.5911 12.7984Z" /> </svg>
