<svg viewBox="0 0 24 24" xmlns="http://www.w3.org/2000/svg"><path d="M12.7308 18.8078H18.2692L16.448 16.425L15.1037 18.0153L14.2057 16.8212L12.7308 18.8078ZM11.8077 21.5C11.3091 21.5 10.8831 21.3234 10.5298 20.9703C10.1766 20.6169 10 20.1909 10 19.6923V12.3077C10 11.8091 10.1766 11.3831 10.5298 11.0297C10.8831 10.6766 11.3091 10.5 11.8077 10.5H19.1922C19.6909 10.5 20.1169 10.6766 20.4702 11.0297C20.8234 11.3831 21 11.8091 21 12.3077V19.6923C21 20.1909 20.8234 20.6169 20.4702 20.9703C20.1169 21.3234 19.6909 21.5 19.1922 21.5H11.8077ZM11.8077 20H19.1922C19.2821 20 19.3558 19.9712 19.4135 19.9135C19.4712 19.8558 19.5 19.7821 19.5 19.6923V12.3077C19.5 12.2179 19.4712 12.1442 19.4135 12.0865C19.3558 12.0288 19.2821 12 19.1922 12H11.8077C11.7179 12 11.6442 12.0288 11.5865 12.0865C11.5288 12.1442 11.5 12.2179 11.5 12.3077V19.6923C11.5 19.7821 11.5288 19.8558 11.5865 19.9135C11.6442 19.9712 11.7179 20 11.8077 20Z" /><path d="M2 8.38475C2.56283 6.61925 3.58817 5.19708 5.076 4.11825C6.56383 3.03942 8.234 2.5 10.0865 2.5C11.5108 2.5 12.8419 2.83658 14.0797 3.50975C15.3176 4.18275 16.3198 5.11033 17.0865 6.2925V3H18.5865V8.38475H13.202V6.88475H15.5827C14.9776 5.98475 14.1875 5.27892 13.2125 4.76725C12.2375 4.25575 11.1955 4 10.0865 4C8.65317 4 7.348 4.39683 6.171 5.1905C4.99417 5.984 4.14292 7.04875 3.61725 8.38475H2Z" /></svg>
