<svg viewBox="0 0 24 24" xmlns="http://www.w3.org/2000/svg"><path d="M23 12.5C23 18.299 18.299 23 12.5 23C12.4694 23 12.4389 22.9999 12.4084 22.9996C12.9351 22.9952 13.4525 22.9534 13.9589 22.8759V15.7112H16.4103L16.8767 12.7476H13.9589V10.8252C13.9589 10.0143 14.3657 9.2233 15.6726 9.2233H17V6.70024C17 6.70024 15.7959 6.5 14.6452 6.5C12.2411 6.5 10.6712 7.9197 10.6712 10.4888V12.7476H8V15.7112H10.6712V22.8413C5.74403 21.9759 2 17.6752 2 12.5C2 6.70101 6.70101 2 12.5 2C18.299 2 23 6.70101 23 12.5Z" /></svg>
