<svg viewBox="0 0 100 100" fill="none" xmlns="http://www.w3.org/2000/svg"> <path d="M50.3334 49.9999C50.3334 40.889 57.7193 33.5029 66.8304 33.5029C75.9412 33.5029 83.3274 40.889 83.3274 49.9999C83.3274 59.111 75.9412 66.4969 66.8304 66.4969C57.7193 66.4969 50.3334 59.111 50.3334 49.9999Z" fill="#1ABCFE"/> <path d="M17.3394 82.9941C17.3394 73.8832 24.7253 66.4971 33.8363 66.4971H50.3333V82.9941C50.3333 92.1052 42.9475 99.4911 33.8363 99.4911C24.7253 99.4911 17.3394 92.1052 17.3394 82.9941Z" fill="#0ACF83"/> <path d="M50.3334 0.509033V33.5029H66.8304C75.9415 33.5029 83.3274 26.117 83.3274 17.006C83.3274 7.89499 75.9415 0.509033 66.8304 0.509033H50.3334Z" fill="#FF7262"/> <path d="M17.3394 17.006C17.3394 26.117 24.7253 33.5029 33.8363 33.5029H50.3333V0.509033H33.8363C24.7253 0.509033 17.3394 7.89498 17.3394 17.006Z" fill="#F24E1E"/> <path d="M17.3394 49.9999C17.3394 59.111 24.7253 66.4969 33.8363 66.4969H50.3333V33.5029H33.8363C24.7253 33.5029 17.3394 40.889 17.3394 49.9999Z" fill="#A259FF"/> </svg>
