<svg viewBox="0 0 24 24" xmlns="http://www.w3.org/2000/svg"><path d="M9.17 6L11.17 8H20V18H4V6H9.17ZM10 4H4C2.9 4 2.01 4.9 2.01 6L2 18C2 19.1 2.9 20 4 20H20C21.1 20 22 19.1 22 18V8C22 6.9 21.1 6 20 6H12L10 4Z" /> <path d="M12.8115 16.4019L14.9 14.8058L16.9884 16.4019L16.2154 13.8116L18.3134 12.1154H15.7231L14.9 9.57507L14.0769 12.1154H11.4866L13.5846 13.8116L12.8115 16.4019Z" /> <path d="M12.8115 16.4019L14.9 14.8058L16.9884 16.4019L16.2154 13.8116L18.3134 12.1154H15.7231L14.9 9.57507L14.0769 12.1154H11.4866L13.5846 13.8116L12.8115 16.4019Z" /></svg>
