<svg viewBox="0 0 135 40" fill="none" xmlns="http://www.w3.org/2000/svg">
<path d="M129.998 40H5.00259C2.25262 40 0.00268555 37.75 0.00268555 35.0001V5.00064C0.00268555 2.25067 2.25262 0.000732422 5.00259 0.000732422H129.998C132.748 0.000732422 134.998 2.25067 134.998 5.00064V35.0001C134.998 37.75 132.748 40 129.998 40Z" fill="#100F0D"/>
<path d="M129.998 0.000732422H5.00259C2.25262 0.000732422 0.00268555 2.25067 0.00268555 5.00064V35.0001C0.00268555 37.75 2.25262 40 5.00259 40H129.998C132.748 40 134.998 37.75 134.998 35.0001V5.00064C134.998 2.25067 132.748 0.000732422 129.998 0.000732422ZM129.998 0.800312C132.314 0.800312 134.198 2.6847 134.198 5.00064V35.0001C134.198 37.316 132.314 39.2004 129.998 39.2004H5.00259C2.68665 39.2004 0.803091 37.316 0.803091 35.0001V5.00064C0.803091 2.6847 2.68665 0.800312 5.00259 0.800312H129.998Z" fill="#A2A2A1"/>
<path d="M106.936 30.0002H108.802V17.4983H106.936V30.0002ZM123.742 22.0021L121.603 27.422H121.54L119.32 22.0021H117.31L120.64 29.5772L118.741 33.7911H120.687L125.818 22.0025L123.742 22.0021ZM113.16 28.5801C112.55 28.5801 111.697 28.2742 111.697 27.5184C111.697 26.5535 112.759 26.1836 113.675 26.1836C114.495 26.1836 114.882 26.3602 115.38 26.6016C115.235 27.7598 114.238 28.5801 113.16 28.5801ZM113.386 21.7287C112.035 21.7287 110.636 22.324 110.057 23.6428L111.713 24.3341C112.067 23.6428 112.726 23.4178 113.418 23.4178C114.383 23.4178 115.364 23.9963 115.38 25.0259V25.1544C115.042 24.9614 114.318 24.6721 113.434 24.6721C111.648 24.6721 109.831 25.6528 109.831 27.4864C109.831 29.159 111.295 30.2367 112.935 30.2367C114.189 30.2367 114.882 29.6738 115.315 29.0141H115.38V29.9797H117.182V25.1864C117.182 22.9669 115.524 21.7287 113.386 21.7287ZM101.854 23.524H99.1998V19.239H101.854C103.249 19.239 104.041 20.3937 104.041 21.3814C104.041 22.3502 103.249 23.524 101.854 23.524ZM101.806 17.4986H97.3347V30.0005H99.1999V25.2643H101.806C103.874 25.2643 105.907 23.7674 105.907 21.3819C105.907 18.9968 103.874 17.4986 101.806 17.4986ZM77.4254 28.5822C76.1363 28.5822 75.0574 27.5025 75.0574 26.0209C75.0574 24.5221 76.1363 23.4272 77.4254 23.4272C78.6981 23.4272 79.6968 24.5222 79.6968 26.0209C79.6968 27.5025 78.6981 28.5822 77.4254 28.5822ZM79.5679 22.7019H79.5034C79.0847 22.2027 78.2788 21.7515 77.2644 21.7515C75.1375 21.7515 73.1883 23.6206 73.1883 26.0209C73.1883 28.4049 75.1375 30.2576 77.2644 30.2576C78.2788 30.2576 79.0847 29.8064 79.5034 29.2912H79.5679V29.9029C79.5679 31.5306 78.6981 32.4001 77.2965 32.4001C76.1531 32.4001 75.4442 31.5786 75.1539 30.886L73.5271 31.5625C73.9939 32.6898 75.234 34.0758 77.2965 34.0758C79.4879 34.0758 81.3406 32.7867 81.3406 29.645V22.0092H79.568L79.5679 22.7019ZM82.6296 29.9998H84.4975V17.498H82.6296V29.9998ZM87.2526 25.8757C87.2045 24.2323 88.526 23.3948 89.476 23.3948C90.2174 23.3948 90.8451 23.7655 91.0553 24.2968L87.2526 25.8757ZM93.0521 24.4577C92.6978 23.5078 91.6185 21.7515 89.4115 21.7515C87.2201 21.7515 85.3999 23.4753 85.3999 26.0046C85.3999 28.3889 87.2045 30.2576 89.6205 30.2576C91.5697 30.2576 92.6979 29.0659 93.1654 28.3729L91.7154 27.4061C91.2319 28.1151 90.5717 28.5823 89.6205 28.5823C88.6706 28.5823 87.9936 28.1472 87.5593 27.2933L93.2454 24.9414L93.0521 24.4577ZM47.7451 23.0566V24.8608H52.0625C51.9336 25.8757 51.5953 26.6167 51.0797 27.1323C50.4512 27.7604 49.4684 28.4534 47.745 28.4534C45.0867 28.4534 43.0087 26.3108 43.0087 23.6527C43.0087 20.9945 45.0867 18.8517 47.745 18.8517C49.1788 18.8517 50.2258 19.4156 50.9991 20.1406L52.2722 18.8676C51.1925 17.8367 49.7589 17.0474 47.745 17.0474C44.1036 17.0474 41.0427 20.0117 41.0427 23.6527C41.0427 27.2933 44.1036 30.2576 47.745 30.2576C49.7102 30.2576 51.1925 29.6132 52.3523 28.405C53.5445 27.2128 53.9151 25.5374 53.9151 24.184C53.9151 23.7656 53.8826 23.3789 53.8182 23.0566H47.7451ZM58.8241 28.5822C57.535 28.5822 56.4234 27.5189 56.4234 26.0046C56.4234 24.4741 57.535 23.4273 58.8241 23.4273C60.1127 23.4273 61.2244 24.4741 61.2244 26.0046C61.2244 27.5189 60.1127 28.5822 58.8241 28.5822ZM58.8241 21.7515C56.4714 21.7515 54.5546 23.5397 54.5546 26.0046C54.5546 28.4534 56.4714 30.2576 58.8241 30.2576C61.176 30.2576 63.0932 28.4534 63.0932 26.0046C63.0932 23.5397 61.176 21.7515 58.8241 21.7515ZM68.1369 28.5822C66.8487 28.5822 65.7367 27.5189 65.7367 26.0046C65.7367 24.4741 66.8488 23.4273 68.1369 23.4273C69.4261 23.4273 70.5373 24.4741 70.5373 26.0046C70.5373 27.5189 69.4261 28.5822 68.1369 28.5822ZM68.1369 21.7515C65.7851 21.7515 63.8683 23.5397 63.8683 26.0046C63.8683 28.4534 65.7851 30.2576 68.1369 30.2576C70.4897 30.2576 72.4065 28.4534 72.4065 26.0046C72.4065 23.5397 70.4897 21.7515 68.1369 21.7515Z" fill="white"/>
<path d="M20.7166 19.4243L10.071 30.7239C10.0714 30.7262 10.0722 30.7282 10.0726 30.7306C10.3991 31.9576 11.5198 32.861 12.8499 32.861C13.3816 32.861 13.8808 32.7173 14.3089 32.4649L14.3429 32.445L26.3264 25.53L20.7166 19.4243Z" fill="#EB3131"/>
<path d="M31.4875 17.5006L31.4773 17.4937L26.3037 14.4944L20.4749 19.6811L26.3239 25.5294L31.4703 22.56C32.3726 22.0729 32.9851 21.1217 32.9851 20.0248C32.9851 18.9358 32.3809 17.9893 31.4875 17.5006Z" fill="#F6B60B"/>
<path d="M10.0696 9.27759C10.0056 9.51358 9.97192 9.76078 9.97192 10.0175V29.9849C9.97192 30.2411 10.0052 30.4891 10.07 30.7243L21.083 19.7134L10.0696 9.27759Z" fill="#5778C5"/>
<path d="M20.7954 20.0012L26.3059 14.4923L14.3358 7.55223C13.9007 7.29163 13.3929 7.14124 12.8496 7.14124C11.5195 7.14124 10.3973 8.04634 10.0707 9.27477C10.0703 9.27597 10.0703 9.2768 10.0703 9.27785L20.7954 20.0012Z" fill="#3BAD49"/>
<path d="M47.395 9.7815H44.4779V10.5034H46.6638C46.6044 11.0925 46.37 11.555 45.9747 11.8909C45.5794 12.2269 45.0747 12.3956 44.4779 12.3956C43.8232 12.3956 43.2685 12.1675 42.8139 11.7144C42.3685 11.2519 42.142 10.68 42.142 9.99097C42.142 9.30199 42.3685 8.73006 42.8139 8.26761C43.2685 7.81452 43.8232 7.58793 44.4779 7.58793C44.8139 7.58793 45.1342 7.64573 45.4278 7.77232C45.7216 7.89882 45.9575 8.07542 46.1419 8.30201L46.6966 7.74733C46.445 7.46133 46.1263 7.24263 45.7309 7.08324C45.3356 6.92384 44.9231 6.84734 44.4778 6.84734C43.6044 6.84734 42.8639 7.15043 42.2591 7.75515C41.6544 8.36134 41.3513 9.10823 41.3513 9.99099C41.3513 10.8737 41.6544 11.6222 42.2591 12.227C42.8638 12.8316 43.6044 13.1348 44.4778 13.1348C45.395 13.1348 46.1262 12.841 46.6887 12.2441C47.184 11.7473 47.4371 11.0754 47.4371 10.2348C47.4371 10.0926 47.42 9.9409 47.395 9.7815ZM48.5251 6.98159V13.0003H52.039V12.2612H49.2985V10.3519H51.7704V9.63004H49.2985V7.72225H52.039V6.98156L48.5251 6.98159ZM56.9664 7.72228V6.98159H52.8305V7.72228H54.5118V13.0003H55.2852V7.72228H56.9664ZM60.7108 6.98159H59.9374V13.0003H60.7108V6.98159ZM65.8158 7.72228V6.98159H61.68V7.72228H63.3611V13.0003H64.1345V7.72228H65.8158ZM73.6203 7.76447C73.0234 7.15039 72.2922 6.84729 71.4188 6.84729C70.5438 6.84729 69.8126 7.15038 69.2157 7.7551C68.6188 8.35199 68.3252 9.10038 68.3252 9.99094C68.3252 10.8815 68.6188 11.63 69.2157 12.2269C69.8126 12.8315 70.5438 13.1347 71.4188 13.1347C72.2844 13.1347 73.0234 12.8315 73.6203 12.2269C74.2172 11.63 74.5109 10.8816 74.5109 9.99094C74.5109 9.10818 74.2172 8.36125 73.6203 7.76447ZM69.7704 8.26756C70.2157 7.81447 70.7626 7.58787 71.4188 7.58787C72.0735 7.58787 72.6204 7.81447 73.0578 8.26756C73.5031 8.71285 73.7218 9.29402 73.7218 9.99092C73.7218 10.6894 73.5031 11.269 73.0578 11.7144C72.6203 12.1674 72.0735 12.3955 71.4188 12.3955C70.7626 12.3955 70.2157 12.1674 69.7704 11.7144C69.3344 11.2597 69.1157 10.6894 69.1157 9.99092C69.1157 9.29403 69.3344 8.72221 69.7704 8.26756ZM76.3484 9.25194L76.3156 8.09093H76.3484L79.4077 13.0002H80.2155V6.98153H79.4421V10.5033L79.4749 11.6643H79.4421L76.5172 6.98153H75.575V13.0002H76.3484V9.25194Z" fill="white" stroke="white" stroke-width="0.26666" stroke-miterlimit="10"/>
</svg>
