<svg viewBox="0 0 24 24" xmlns="http://www.w3.org/2000/svg"><path d="M5.73075 18.8078H11.2692L9.448 16.425L8.10375 18.0153L7.20575 16.8212L5.73075 18.8078ZM4.80775 21.5C4.30908 21.5 3.88308 21.3234 3.52975 20.9703C3.17658 20.6169 3 20.1909 3 19.6923V12.3077C3 11.8091 3.17658 11.3831 3.52975 11.0297C3.88308 10.6766 4.30908 10.5 4.80775 10.5H12.1922C12.6909 10.5 13.1169 10.6766 13.4702 11.0297C13.8234 11.3831 14 11.8091 14 12.3077V19.6923C14 20.1909 13.8234 20.6169 13.4702 20.9703C13.1169 21.3234 12.6909 21.5 12.1922 21.5H4.80775ZM4.80775 20H12.1922C12.2821 20 12.3558 19.9712 12.4135 19.9135C12.4712 19.8558 12.5 19.7821 12.5 19.6923V12.3077C12.5 12.2179 12.4712 12.1442 12.4135 12.0865C12.3558 12.0288 12.2821 12 12.1922 12H4.80775C4.71792 12 4.64417 12.0288 4.5865 12.0865C4.52883 12.1442 4.5 12.2179 4.5 12.3077V19.6923C4.5 19.7821 4.52883 19.8558 4.5865 19.9135C4.64417 19.9712 4.71792 20 4.80775 20Z" /><path d="M22 8.38475C21.4372 6.61925 20.4118 5.19708 18.924 4.11825C17.4362 3.03942 15.766 2.5 13.9135 2.5C12.4892 2.5 11.1581 2.83658 9.92025 3.50975C8.68242 4.18275 7.68017 5.11033 6.9135 6.2925V3H5.4135V8.38475H10.798V6.88475H8.41725C9.02242 5.98475 9.8125 5.27892 10.7875 4.76725C11.7625 4.25575 12.8045 4 13.9135 4C15.3468 4 16.652 4.39683 17.829 5.1905C19.0058 5.984 19.8571 7.04875 20.3828 8.38475H22Z" /></svg>
