<svg viewBox="0 0 24 24" xmlns="http://www.w3.org/2000/svg"> <path d="M22.5 10.8734C22.5 6.11841 17.7899 2.24997 11.9999 2.24997C6.2107 2.24997 1.5 6.11841 1.5 10.8734C1.5 15.1362 5.23547 18.7062 10.2813 19.3813C10.6233 19.4559 11.0887 19.6095 11.2064 19.9053C11.3123 20.1739 11.2757 20.5948 11.2402 20.8661C11.2402 20.8661 11.1171 21.616 11.0905 21.7757C11.0448 22.0444 10.8795 22.8264 11.9999 22.3485C13.1207 21.8706 18.0469 18.7451 20.2498 16.179C21.7715 14.4903 22.5 12.7764 22.5 10.8734Z" /> <path d="M9.86657 8.56829H9.13006C9.01714 8.56829 8.92535 8.66087 8.92535 8.77461V13.3995C8.92535 13.5135 9.01714 13.6058 9.13006 13.6058H9.86657C9.97949 13.6058 10.0711 13.5135 10.0711 13.3995V8.77461C10.0711 8.66087 9.97949 8.56829 9.86657 8.56829Z" fill="white"/> <path d="M14.936 8.56829H14.1995C14.0865 8.56829 13.9949 8.66087 13.9949 8.77461V11.5223L11.8984 8.66006C11.8596 8.60126 11.7967 8.57215 11.7281 8.56829H10.9918C10.8788 8.56829 10.787 8.66087 10.787 8.77461V13.3995C10.787 13.5135 10.8788 13.6058 10.9918 13.6058H11.7281C11.8412 13.6058 11.9328 13.5135 11.9328 13.3995V10.6527L14.032 13.5185C14.0697 13.5725 14.1337 13.6058 14.1995 13.6058H14.936C15.0491 13.6058 15.1405 13.5135 15.1405 13.3995V8.77461C15.1405 8.66087 15.0491 8.56829 14.936 8.56829Z" fill="white"/> <path d="M8.09123 12.4478H6.09004V8.77491C6.09004 8.66076 5.99845 8.56818 5.88573 8.56818H5.14903C5.0361 8.56818 4.94452 8.66076 4.94452 8.77491V13.399C4.94452 13.5112 5.0357 13.6059 5.14882 13.6059H8.09123C8.20415 13.6059 8.29533 13.5131 8.29533 13.399V12.6545C8.29533 12.5403 8.20415 12.4478 8.09123 12.4478Z" fill="white"/> <path d="M19.0032 9.72634C19.1161 9.72634 19.2073 9.63396 19.2073 9.51961V8.77511C19.2073 8.66096 19.1161 8.56818 19.0032 8.56818H16.061C15.948 8.56818 15.8565 8.66268 15.8565 8.77491V13.3992C15.8565 13.5111 15.9478 13.6059 16.0606 13.6059H19.0032C19.1161 13.6059 19.2073 13.5131 19.2073 13.3992V12.6545C19.2073 12.5406 19.1161 12.4478 19.0032 12.4478H17.0022V11.666H19.0032C19.1161 11.666 19.2073 11.5735 19.2073 11.4593V10.7148C19.2073 10.6007 19.1161 10.5079 19.0032 10.5079H17.0022V9.72634H19.0032Z" fill="white"/> </svg>
