<svg viewBox="0 0 16 16" xmlns="http://www.w3.org/2000/svg">
<path d="M14.2733 7.72L8.27333 1.72C8.03333 1.48 7.7 1.33334 7.33333 1.33334H2.66667C1.93333 1.33334 1.33333 1.93334 1.33333 2.66667V7.33334C1.33333 7.7 1.48 8.03334 1.72667 8.28L7.72667 14.28C7.96667 14.52 8.3 14.6667 8.66667 14.6667C9.03333 14.6667 9.36667 14.52 9.60667 14.2733L14.2733 9.60667C14.52 9.36667 14.6667 9.03334 14.6667 8.66667C14.6667 8.3 14.5133 7.96 14.2733 7.72ZM8.66667 13.34L2.66667 7.33334V2.66667H7.33333V2.66L13.3333 8.66L8.66667 13.34Z" />
<path d="M4.33333 5.33334C4.88562 5.33334 5.33333 4.88562 5.33333 4.33334C5.33333 3.78105 4.88562 3.33334 4.33333 3.33334C3.78105 3.33334 3.33333 3.78105 3.33333 4.33334C3.33333 4.88562 3.78105 5.33334 4.33333 5.33334Z" />
</svg>
