<svg viewBox="0 0 24 24" xmlns="http://www.w3.org/2000/svg"><path fill-rule="evenodd" clip-rule="evenodd" d="M11.7181 4.5C7.14602 4.5 3.5 8.17752 3.5 12.7183C3.5 16.2675 5.79472 19.1556 8.12635 20.1088L9.74002 16.1389C8.62101 15.4863 7.98427 14.2692 7.96369 12.7283C7.93671 10.7081 9.6145 8.98049 11.7831 8.98402C13.8712 8.98741 15.5364 10.7251 15.5364 12.7183C15.5364 13.6158 15.3455 14.4003 14.9113 15.0445C14.6162 15.4823 14.2311 15.8223 13.7796 16.0831L15.3522 20.1256C17.7263 19.1819 20 16.3297 20 12.7183C20 8.18445 16.2971 4.5 11.7181 4.5ZM2 12.7183C2 7.35298 6.31371 3 11.7181 3C17.1155 3 21.5 7.34604 21.5 12.7183C21.5 17.2836 18.3903 20.9511 15.0932 21.7836C14.7263 21.8763 14.3478 21.681 14.2106 21.3284L12.1277 15.9743C12.0549 15.787 12.0602 15.5784 12.1425 15.3951C12.2248 15.2118 12.3772 15.0692 12.5656 14.9993C13.0994 14.801 13.4458 14.535 13.6674 14.2062C13.8912 13.8742 14.0364 13.4058 14.0364 12.7183C14.0364 11.5416 13.0304 10.486 11.7807 10.484C10.4273 10.4818 9.44805 11.547 9.46356 12.7083C9.48128 14.0353 10.0811 14.7661 10.9331 15.0347C11.1329 15.0976 11.2972 15.2412 11.3864 15.4307C11.4755 15.6202 11.4814 15.8384 11.4025 16.0324L9.25158 21.324C9.11005 21.6721 8.73267 21.8618 8.36883 21.7676C5.137 20.931 2 17.2186 2 12.7183Z" /></svg>
