<svg viewBox="0 0 24 24" xmlns="http://www.w3.org/2000/svg"><path fill-rule="evenodd" clip-rule="evenodd" d="M9 4C11.21 4 13 5.79 13 8C13 10.21 11.21 12 9 12C6.79 12 5 10.21 5 8C5 5.79 6.79 4 9 4ZM9 10C10.1 10 11 9.1 11 8C11 6.9 10.1 6 9 6C7.9 6 7 6.9 7 8C7 9.1 7.9 10 9 10Z" /><path fill-rule="evenodd" clip-rule="evenodd" d="M1 20V18C1 15.34 6.33 14 9 14C11.67 14 17 15.34 17 18V20H1ZM9 16C6.3 16 3.2 17.29 3 18H15C14.78 17.28 11.69 16 9 16Z" /><path d="M14.3212 10.95L17.425 14.0538L23.5288 7.95L22.475 6.89618L17.425 11.9462L15.375 9.89618L14.3212 10.95Z" /></svg>
