<svg viewBox="0 0 24 24" xmlns="http://www.w3.org/2000/svg">
<path d="M2 17.1631V2.97843C2 2.71086 2.09618 2.48089 2.28854 2.28854C2.48089 2.09618 2.7116 2 2.98067 2H16.7977C17.0668 2 17.2975 2.09618 17.4899 2.28854C17.6822 2.48089 17.7784 2.71089 17.7784 2.97852V12.3076C17.7784 12.5753 17.6822 12.8053 17.4899 12.9976C17.2975 13.19 17.0668 13.2862 16.7977 13.2862H5.87695L2 17.1631ZM6.85671 18.1231C6.58999 18.1231 6.36001 18.0269 6.16678 17.8345C5.97356 17.6422 5.87695 17.4114 5.87695 17.1424V15.4406H19.5729L19.9329 15.8006V5.83329H21.6346C21.9037 5.83329 22.1344 5.92947 22.3268 6.12183C22.5191 6.31419 22.6153 6.54409 22.6153 6.81153V22L18.7384 18.1231H6.85671ZM16.1912 3.58718H3.58718V13.3277L5.21589 11.699H16.1912V3.58718Z" />
</svg>
