<svg width="15" height="15" viewBox="0 0 15 15" fill="none" xmlns="http://www.w3.org/2000/svg">
<g id="schedule">
<path id="Vector" d="M9.79688 10.5156L10.5 9.8125L8.01562 7.3125V4.17188H7.07812V7.6875L9.79688 10.5156ZM7.5 13.75C6.64583 13.75 5.83854 13.5859 5.07812 13.2578C4.31771 12.9297 3.65365 12.4818 3.08594 11.9141C2.51823 11.3464 2.07031 10.6823 1.74219 9.92188C1.41406 9.16146 1.25 8.35417 1.25 7.5C1.25 6.64583 1.41406 5.83854 1.74219 5.07812C2.07031 4.31771 2.51823 3.65365 3.08594 3.08594C3.65365 2.51823 4.31771 2.07031 5.07812 1.74219C5.83854 1.41406 6.64583 1.25 7.5 1.25C8.35417 1.25 9.16146 1.41406 9.92188 1.74219C10.6823 2.07031 11.3464 2.51823 11.9141 3.08594C12.4818 3.65365 12.9297 4.31771 13.2578 5.07812C13.5859 5.83854 13.75 6.64583 13.75 7.5C13.75 8.35417 13.5859 9.16146 13.2578 9.92188C12.9297 10.6823 12.4818 11.3464 11.9141 11.9141C11.3464 12.4818 10.6823 12.9297 9.92188 13.2578C9.16146 13.5859 8.35417 13.75 7.5 13.75ZM7.5 12.8125C8.95833 12.8125 10.2083 12.2917 11.25 11.25C12.2917 10.2083 12.8125 8.95833 12.8125 7.5C12.8125 6.04167 12.2917 4.79167 11.25 3.75C10.2083 2.70833 8.95833 2.1875 7.5 2.1875C6.04167 2.1875 4.79167 2.70833 3.75 3.75C2.70833 4.79167 2.1875 6.04167 2.1875 7.5C2.1875 8.95833 2.70833 10.2083 3.75 11.25C4.79167 12.2917 6.04167 12.8125 7.5 12.8125Z" fill="#A66300"/>
</g>
</svg>
