<svg viewBox="0 0 24 24" xmlns="http://www.w3.org/2000/svg"><path d="M3.59619 19.2691V4.69232L16.8865 10.3173H16.7019C16.2596 10.3301 15.833 10.3856 15.4221 10.4836C15.0112 10.5817 14.6282 10.7154 14.2731 10.8846L5.09614 6.99997V10.6923L10.5192 12L5.09614 13.3076V17L10.8135 14.5653C10.7058 14.8525 10.6218 15.1467 10.5616 15.448C10.5013 15.7493 10.468 16.039 10.4616 16.3172V16.348L3.59619 19.2691ZM16.9038 21.3076C15.6551 21.3076 14.5929 20.8698 13.7173 19.9942C12.8417 19.1185 12.4039 18.0564 12.4039 16.8076C12.4039 15.5589 12.8417 14.4968 13.7173 13.6211C14.5929 12.7455 15.6551 12.3077 16.9038 12.3077C18.1525 12.3077 19.2147 12.7455 20.0903 13.6211C20.966 14.4968 21.4038 15.5589 21.4038 16.8076C21.4038 18.0564 20.966 19.1185 20.0903 19.9942C19.2147 20.8698 18.1525 21.3076 16.9038 21.3076ZM18.5538 19.0807L19.1769 18.4576L17.3461 16.6269V13.8653H16.4615V16.9884L18.5538 19.0807ZM5.09614 14.5653V6.99997V17V14.5653Z" /></svg>
