<svg viewBox="0 0 24 24" xmlns="http://www.w3.org/2000/svg">
<path d="M9.50685 22L9.09777 18.7925C8.96554 18.7595 8.73965 18.6548 8.42011 18.4785C8.10055 18.3022 7.73486 18.0814 7.32303 17.8163L4.37072 19.0538L2 14.9301L4.57836 12.9839C4.55013 12.8301 4.5317 12.677 4.52309 12.5246C4.51449 12.3722 4.5102 12.2044 4.5102 12.0212C4.5102 11.8828 4.51673 11.7311 4.5298 11.5661C4.54289 11.4012 4.56184 11.2106 4.58663 10.9943L2 9.06468L4.37072 4.98333L7.34782 6.23224C7.5923 6.03044 7.86296 5.84364 8.1598 5.67181C8.45662 5.49999 8.76584 5.3552 9.08746 5.23744L9.50685 2H14.2266L14.6357 5.2178C14.969 5.34038 15.2684 5.48208 15.5339 5.64289C15.7994 5.8037 16.065 6.00015 16.3308 6.23224L19.3627 4.98333L21.7335 9.06468L19.0487 11.0698C19.0838 11.2426 19.1039 11.3986 19.1091 11.5377C19.1143 11.6768 19.1169 11.8337 19.1169 12.0083C19.1169 12.1759 19.1134 12.3328 19.1065 12.479C19.0996 12.6251 19.0776 12.7927 19.0404 12.9819L21.6828 14.9301L19.3121 19.0538L16.3308 17.7843C16.085 17.9909 15.8295 18.1731 15.5643 18.3308C15.2992 18.4885 14.9897 18.6389 14.6357 18.7822L14.2266 22H9.50685ZM11.8286 15.1253C12.6911 15.1253 13.4252 14.8221 14.0308 14.2157C14.6365 13.6093 14.9394 12.874 14.9394 12.0097C14.9394 11.1455 14.6363 10.4106 14.0301 9.80486C13.4239 9.19919 12.6888 8.89636 11.8249 8.89636C10.9544 8.89636 10.2177 9.19956 9.61479 9.80597C9.01186 10.4124 8.71039 11.1477 8.71039 12.0119C8.71039 12.8762 9.01186 13.6111 9.61479 14.2168C10.2177 14.8225 10.9557 15.1253 11.8286 15.1253ZM11.8249 13.6223C11.3772 13.6223 10.9967 13.4657 10.6834 13.1523C10.3701 12.839 10.2134 12.4585 10.2134 12.0108C10.2134 11.5632 10.3701 11.1827 10.6834 10.8694C10.9967 10.556 11.3772 10.3993 11.8249 10.3993C12.2691 10.3993 12.6487 10.556 12.9638 10.8694C13.2788 11.1827 13.4364 11.5632 13.4364 12.0108C13.4364 12.4585 13.2788 12.839 12.9638 13.1523C12.6487 13.4657 12.2691 13.6223 11.8249 13.6223ZM10.7964 20.497H12.8806L13.2817 17.6056C13.8138 17.4624 14.296 17.2647 14.7282 17.0127C15.1603 16.7606 15.5826 16.4273 15.9951 16.0127L18.6779 17.1563L19.7222 15.3541L17.3701 13.5955C17.4506 13.3172 17.508 13.0487 17.5421 12.7899C17.5762 12.531 17.5932 12.2705 17.5932 12.0083C17.5932 11.7359 17.5784 11.4781 17.5488 11.235C17.5192 10.992 17.4596 10.7292 17.3701 10.4469L19.7429 8.6484L18.7202 6.84372L15.9765 8.00381C15.6515 7.64845 15.238 7.3234 14.7359 7.02864C14.2338 6.73388 13.7449 6.52796 13.269 6.4109L12.9314 3.50299H10.8063L10.4644 6.39266C9.89832 6.53084 9.40127 6.72045 8.97325 6.96149C8.54526 7.20252 8.11054 7.541 7.6691 7.97695L5.01322 6.84372L3.96368 8.6484L6.27556 10.3642C6.18603 10.6335 6.12336 10.9025 6.08755 11.1712C6.05174 11.4399 6.03384 11.7185 6.03384 12.0069C6.03384 12.2761 6.0495 12.5404 6.08084 12.8001C6.11217 13.0597 6.16916 13.3321 6.25179 13.6172L3.96368 15.3516L5.01301 17.1563L7.65049 16.0282C8.07816 16.4559 8.51547 16.7961 8.96243 17.0488C9.40937 17.3016 9.90582 17.4951 10.4518 17.6294L10.7964 20.497Z" />
</svg>
