<svg viewBox="0 0 24 24" xmlns="http://www.w3.org/2000/svg"><path d="M1.50006 12C1.50006 10.5436 1.77473 9.17759 2.32406 7.90196C2.87343 6.62631 3.62407 5.51509 4.57599 4.56831C5.52792 3.62151 6.6401 2.87343 7.91254 2.32408C9.18495 1.77471 10.5474 1.50003 12 1.50003C13.4526 1.50003 14.8167 1.77311 16.0923 2.31928C17.3679 2.86543 18.4817 3.6119 19.4336 4.55868C20.3856 5.50548 21.1346 6.6167 21.6807 7.89233C22.2269 9.16796 22.5 10.5372 22.5 12H21C21 10.75 20.7625 9.57917 20.2875 8.48751C19.8125 7.39584 19.1667 6.44167 18.35 5.62501C17.5333 4.80834 16.5792 4.16667 15.4875 3.70001C14.3958 3.23334 13.2333 3.00001 12 3.00001C10.7667 3.00001 9.60418 3.23334 8.51251 3.70001C7.42084 4.16667 6.46668 4.80834 5.65001 5.62501C4.83334 6.44167 4.18751 7.39584 3.71251 8.48751C3.23751 9.57917 3.00001 10.75 3.00001 12H1.50006ZM5.50001 12C5.50001 10.168 6.13366 8.62663 7.40096 7.37598C8.66829 6.12535 10.2013 5.50003 12 5.50003C13.7987 5.50003 15.3317 6.12535 16.599 7.37598C17.8663 8.62663 18.5 10.168 18.5 12H17C17 10.6167 16.5125 9.43751 15.5375 8.46251C14.5625 7.48751 13.3833 7.00001 12 7.00001C10.6167 7.00001 9.43751 7.48751 8.46251 8.46251C7.48751 9.43751 7.00001 10.6167 7.00001 12H5.50004H5.50001ZM9.00001 22.0538L7.94619 21L11.25 17.6962V14.1365C10.8 13.9686 10.4359 13.6923 10.1577 13.3077C9.87951 12.9231 9.74041 12.4904 9.74041 12.0096C9.74041 11.3737 9.95804 10.8382 10.3933 10.4029C10.8285 9.96766 11.3641 9.75003 12 9.75003C12.6359 9.75003 13.1715 9.96766 13.6067 10.4029C14.042 10.8382 14.2596 11.3737 14.2596 12.0096C14.2596 12.4904 14.1205 12.9231 13.8423 13.3077C13.5641 13.6923 13.2 13.9686 12.75 14.1365V17.6962L16.0538 21L15 22.0538L12 19.0538L9.00001 22.0538Z" /></svg>
