<svg width="24" height="24" viewBox="0 0 24 24" fill="none" xmlns="http://www.w3.org/2000/svg">
<path d="M19.6692 21.3692L20.723 20.3153L3.05383 2.64615L2 3.69998L4.36917 6.06918V10.5615C4.36917 12.941 5.06725 15.1153 6.4634 17.0846C7.85957 19.0538 9.66149 20.3397 11.8692 20.9422C12.7192 20.7025 13.5333 20.3393 14.3115 19.8528C15.0897 19.3663 15.7859 18.782 16.4 18.0999L19.6692 21.3692Z"/>
<path d="M18.3153 15.223C18.6794 14.4333 18.9461 13.6506 19.1153 12.875C19.2845 12.0993 19.3692 11.3282 19.3692 10.5615V4.80768L11.8692 2L6.95765 3.8346L18.3153 15.223Z" />
</svg>
