<svg viewBox="0 0 24 24" xmlns="http://www.w3.org/2000/svg"> <path d="M19.8752 11.2498C20.9106 11.2498 21.75 10.4104 21.75 9.37496C21.75 8.33952 20.9105 7.50012 19.8751 7.50012C18.8395 7.50012 18 8.33959 18 9.37512V11.2498H19.8752ZM14.625 11.2498C15.6605 11.2498 16.5 10.4104 16.5 9.3748V4.12512C16.5 3.08959 15.6605 2.25012 14.625 2.25012C13.5895 2.25012 12.75 3.08959 12.75 4.12512V9.3748C12.75 10.4104 13.5895 11.2498 14.625 11.2498Z" /> <path d="M4.12484 12.7502C3.08939 12.7502 2.25 13.5896 2.25 14.625C2.25 15.6605 3.08947 16.4998 4.12492 16.4998C5.16045 16.4998 6 15.6604 6 14.6248V12.7502H4.12484ZM9.375 12.7502C8.33947 12.7502 7.5 13.5896 7.5 14.6252V19.8748C7.5 20.9104 8.33947 21.7498 9.375 21.7498C10.4105 21.7498 11.25 20.9104 11.25 19.8748V14.6252C11.25 13.5896 10.4105 12.7502 9.375 12.7502Z" /> <path d="M12.7501 19.8752C12.7501 20.9106 13.5895 21.75 14.625 21.75C15.6604 21.75 16.4998 20.9105 16.4998 19.8751C16.4998 18.8395 15.6603 18 14.6248 18H12.7501V19.8752ZM12.7501 14.625C12.7501 15.6605 13.5896 16.5 14.6251 16.5H19.8748C20.9103 16.5 21.7498 15.6605 21.7498 14.625C21.7498 13.5895 20.9104 12.75 19.8748 12.75H14.6251C13.5896 12.75 12.7501 13.5895 12.7501 14.625Z" /> <path d="M11.2498 4.12484C11.2498 3.08939 10.4104 2.25 9.37496 2.25C8.33952 2.25 7.50012 3.08947 7.50012 4.12492C7.50012 5.16045 8.33959 6 9.37512 6H11.2498V4.12484ZM11.2498 9.375C11.2498 8.33947 10.4103 7.5 9.3748 7.5H4.12512C3.08959 7.5 2.25012 8.33947 2.25012 9.375C2.25012 10.4105 3.08959 11.25 4.12512 11.25H9.3748C10.4103 11.25 11.2498 10.4105 11.2498 9.375Z" /></svg>
