<svg viewBox="0 0 24 24" xmlns="http://www.w3.org/2000/svg"><path d="M13.05 9.78999L9.99999 7.49999V16.5L13.05 14.21L16 12L13.05 9.78999ZM13.05 9.78999L9.99999 7.49999V16.5L13.05 14.21L16 12L13.05 9.78999ZM13.05 9.78999L9.99999 7.49999V16.5L13.05 14.21L16 12L13.05 9.78999ZM11 4.06999V2.04999C8.98999 2.24999 7.15999 3.04999 5.67999 4.25999L7.09999 5.68999C8.20999 4.82999 9.53999 4.24999 11 4.06999ZM5.68999 7.09999L4.25999 5.67999C3.04999 7.15999 2.24999 8.98999 2.04999 11H4.06999C4.24999 9.53999 4.82999 8.20999 5.68999 7.09999ZM4.06999 13H2.04999C2.24999 15.01 3.04999 16.84 4.25999 18.32L5.68999 16.89C4.82999 15.79 4.24999 14.46 4.06999 13ZM5.67999 19.74C7.15999 20.95 8.99999 21.75 11 21.95V19.93C9.53999 19.75 8.20999 19.17 7.09999 18.31L5.67999 19.74ZM22 12C22 17.16 18.08 21.42 13.05 21.95V19.93C16.97 19.41 20 16.05 20 12C20 7.94999 16.97 4.58999 13.05 4.06999V2.04999C18.08 2.57999 22 6.83999 22 12Z" /></svg>
