<svg viewBox="0 0 24 24" xmlns="http://www.w3.org/2000/svg"> <path d="M3.675 14.6C2.925 14.6 2.29167 14.3417 1.775 13.825C1.25833 13.3083 1 12.675 1 11.925C1 11.175 1.25833 10.5417 1.775 10.025C2.29167 9.50833 2.925 9.25 3.675 9.25V6.175C3.675 5.775 3.825 5.425 4.125 5.125C4.425 4.825 4.775 4.675 5.175 4.675H9.325C9.325 3.925 9.58333 3.29167 10.1 2.775C10.6167 2.25833 11.25 2 12 2C12.75 2 13.3833 2.25833 13.9 2.775C14.4167 3.29167 14.675 3.925 14.675 4.675H18.825C19.225 4.675 19.575 4.825 19.875 5.125C20.175 5.425 20.325 5.775 20.325 6.175V9.25C21.075 9.25 21.7083 9.50833 22.225 10.025C22.7417 10.5417 23 11.175 23 11.925C23 12.675 22.7417 13.3083 22.225 13.825C21.7083 14.3417 21.075 14.6 20.325 14.6V19.5C20.325 19.9 20.175 20.25 19.875 20.55C19.575 20.85 19.225 21 18.825 21H5.175C4.775 21 4.425 20.85 4.125 20.55C3.825 20.25 3.675 19.9 3.675 19.5V14.6ZM8.575 12.1C8.85833 12.1 9.09583 12.0042 9.2875 11.8125C9.47917 11.6208 9.575 11.3833 9.575 11.1C9.575 10.8167 9.47917 10.5792 9.2875 10.3875C9.09583 10.1958 8.85833 10.1 8.575 10.1C8.29167 10.1 8.05417 10.1958 7.8625 10.3875C7.67083 10.5792 7.575 10.8167 7.575 11.1C7.575 11.3833 7.67083 11.6208 7.8625 11.8125C8.05417 12.0042 8.29167 12.1 8.575 12.1ZM15.425 12.1C15.7083 12.1 15.9458 12.0042 16.1375 11.8125C16.3292 11.6208 16.425 11.3833 16.425 11.1C16.425 10.8167 16.3292 10.5792 16.1375 10.3875C15.9458 10.1958 15.7083 10.1 15.425 10.1C15.1417 10.1 14.9042 10.1958 14.7125 10.3875C14.5208 10.5792 14.425 10.8167 14.425 11.1C14.425 11.3833 14.5208 11.6208 14.7125 11.8125C14.9042 12.0042 15.1417 12.1 15.425 12.1ZM7.8 16.875H16.2V15.375H7.8V16.875ZM5.175 19.5H18.825V6.175H5.175V19.5ZM5.175 19.5V6.175V19.5Z" /> </svg>
