<svg viewBox="0 0 24 24" xmlns="http://www.w3.org/2000/svg"><path d="M10.014 19.4211V17.5263H7.6376C7.51612 17.5263 7.40076 17.498 7.29149 17.4414C7.18223 17.3845 7.09518 17.3076 7.03034 17.2105L2.76465 11.2105L7.03034 5.21053C7.09518 5.11347 7.18223 5.03653 7.29149 4.97968C7.40076 4.92305 7.51612 4.89474 7.6376 4.89474H19.6376C19.7511 4.89474 19.8442 4.93116 19.9171 5.004C19.9899 5.07684 20.0263 5.17 20.0263 5.28347L20.0264 8H21.9211L21.9211 5.28347C21.9211 4.65547 21.6975 4.11789 21.2503 3.67074C20.8032 3.22358 20.2656 3 19.6376 3H7.6376C7.19886 3 6.7876 3.10284 6.40381 3.30853C6.02002 3.51421 5.70423 3.79358 5.45644 4.14663L0.447388 11.2105L5.45644 18.2987C5.71223 18.6518 6.02834 18.9271 6.40476 19.1245C6.78139 19.3222 7.19233 19.4211 7.6376 19.4211H10.014Z" /><path d="M24 16.8571H18.8572V22H17.1429V16.8571H12V15.1429H17.1429V10H18.8572V15.1429H24V16.8571Z" /></svg>
