<svg viewBox="0 0 24 24" xmlns="http://www.w3.org/2000/svg"><path fill-rule="evenodd" clip-rule="evenodd" d="M2.46911 4.24594C2 5.14902 2 6.33546 2 8.70833V15.2917C2 17.6645 2 18.851 2.46911 19.7541C2.86443 20.5151 3.48493 21.1356 4.24594 21.5309C5.14902 22 6.33546 22 8.70833 22H15.2917C17.6645 22 18.851 22 19.7541 21.5309C20.5151 21.1356 21.1356 20.5151 21.5309 19.7541C22 18.851 22 17.6645 22 15.2917V8.70833C22 6.33546 22 5.14902 21.5309 4.24594C21.1356 3.48493 20.5151 2.86443 19.7541 2.46911C18.851 2 17.6645 2 15.2917 2H8.70833C6.33546 2 5.14902 2 4.24594 2.46911C3.48493 2.86443 2.86443 3.48493 2.46911 4.24594ZM12.3392 14.3681C12.3392 15.586 11.4373 16.3824 10.3248 16.3824C9.21235 16.3824 8.31049 15.4806 8.31049 14.3681C8.31049 13.3735 9.23687 12.4637 10.3586 12.5051C10.5788 12.5051 10.8373 12.5575 10.9376 12.5929V10.2791C8.94485 9.87614 5.93616 11.525 5.93616 14.3681C5.93616 16.3824 7.48624 18.6667 10.3248 18.6667C13.1635 18.6667 14.7481 16.3824 14.7481 14.3681V9.79216C15.2053 10.1547 16.519 10.8079 18.0638 10.8079V8.53625C16.2574 8.57265 14.6195 6.98102 14.755 5.33333H12.3392V14.3681Z" fill="black"/></svg>
