<svg viewBox="0 0 24 24" xmlns="http://www.w3.org/2000/svg"><path d="M18.05 15.95C17.1167 15.0667 16.375 14.025 15.825 12.825C15.275 11.625 15 10.35 15 8.99999C15 7.64999 15.275 6.37499 15.825 5.17499C16.375 3.97499 17.1167 2.93332 18.05 2.04999L19.6 3.64999C18.8667 4.33332 18.2917 5.13332 17.875 6.04999C17.4583 6.96665 17.25 7.94999 17.25 8.99999C17.25 10.05 17.4583 11.0417 17.875 11.975C18.2917 12.9083 18.8667 13.7167 19.6 14.4L18.05 15.95ZM21.25 12.75C20.7167 12.2667 20.3 11.7042 20 11.0625C19.7 10.4208 19.55 9.73332 19.55 8.99999C19.55 8.26665 19.7 7.57915 20 6.93749C20.3 6.29582 20.7167 5.73332 21.25 5.24999L22.85 6.84999C22.55 7.13332 22.3083 7.45415 22.125 7.81249C21.9417 8.17082 21.85 8.56665 21.85 8.99999C21.85 9.43332 21.9417 9.82915 22.125 10.1875C22.3083 10.5458 22.55 10.8667 22.85 11.15L21.25 12.75ZM9 13C7.9 13 6.95833 12.6083 6.175 11.825C5.39167 11.0417 5 10.1 5 8.99999C5 7.89999 5.39167 6.95832 6.175 6.17499C6.95833 5.39165 7.9 4.99999 9 4.99999C10.1 4.99999 11.0417 5.39165 11.825 6.17499C12.6083 6.95832 13 7.89999 13 8.99999C13 10.1 12.6083 11.0417 11.825 11.825C11.0417 12.6083 10.1 13 9 13ZM1 21V18.2C1 17.65 1.14167 17.1333 1.425 16.65C1.70833 16.1667 2.1 15.8 2.6 15.55C3.45 15.1167 4.40833 14.75 5.475 14.45C6.54167 14.15 7.71667 14 9 14C10.2833 14 11.4583 14.15 12.525 14.45C13.5917 14.75 14.55 15.1167 15.4 15.55C15.9 15.8 16.2917 16.1667 16.575 16.65C16.8583 17.1333 17 17.65 17 18.2V21H1ZM3 19H15V18.2C15 18.0167 14.9542 17.85 14.8625 17.7C14.7708 17.55 14.65 17.4333 14.5 17.35C13.9 17.05 13.1292 16.75 12.1875 16.45C11.2458 16.15 10.1833 16 9 16C7.81667 16 6.75417 16.15 5.8125 16.45C4.87083 16.75 4.1 17.05 3.5 17.35C3.35 17.4333 3.22917 17.55 3.1375 17.7C3.04583 17.85 3 18.0167 3 18.2V19ZM9 11C9.55 11 10.0208 10.8042 10.4125 10.4125C10.8042 10.0208 11 9.54999 11 8.99999C11 8.44999 10.8042 7.97915 10.4125 7.58749C10.0208 7.19582 9.55 6.99999 9 6.99999C8.45 6.99999 7.97917 7.19582 7.5875 7.58749C7.19583 7.97915 7 8.44999 7 8.99999C7 9.54999 7.19583 10.0208 7.5875 10.4125C7.97917 10.8042 8.45 11 9 11Z" /></svg>
