<svg viewBox="0 0 24 24" xmlns="http://www.w3.org/2000/svg"><path d="M7.96379 20C5.76861 20 3.72233 19.3455 2 18.2161C3.46232 18.3131 6.04298 18.0808 7.64814 16.5112C5.23345 16.3976 4.14446 14.499 4.00242 13.6876C4.20759 13.7688 5.1861 13.8661 5.73848 13.6389C2.96079 12.9249 2.53467 10.426 2.62936 9.66329C3.15018 10.0365 4.03399 10.1663 4.3812 10.1339C1.7929 8.23529 2.72405 5.37931 3.18174 4.76268C5.0392 7.40081 7.82296 8.88248 11.2668 8.9649C11.2019 8.67294 11.1676 8.36899 11.1676 8.0568C11.1676 5.81629 12.9341 4 15.1132 4C16.2517 4 17.2776 4.49583 17.9978 5.28893C18.7586 5.10616 19.9036 4.67831 20.4634 4.30832C20.1813 5.34686 19.3028 6.21321 18.7715 6.53431C18.7672 6.52334 18.7759 6.54524 18.7715 6.53431C19.2382 6.46194 20.5011 6.21313 21 5.86613C20.7533 6.44957 19.822 7.41964 19.0577 7.96273C19.1999 14.3917 14.4019 20 7.96379 20Z" /></svg>
