<svg viewBox="0 0 24 24" xmlns="http://www.w3.org/2000/svg"><path d="M10.5 4C10.78 4 11 4.22 11 4.5V6.5H17V12.5H19C19.28 12.5 19.5 12.72 19.5 13C19.5 13.28 19.28 13.5 19 13.5H17V19.5H14.88C14.2 17.75 12.49 16.5 10.5 16.5C8.51 16.5 6.8 17.75 6.12 19.5H4V17.38C5.75 16.7 7 14.99 7 13C7 11.01 5.76 9.3 4.01 8.62L4 6.5H10V4.5C10 4.22 10.22 4 10.5 4ZM10.5 2C9.12 2 8 3.12 8 4.5H4C2.9 4.5 2.01 5.4 2.01 6.5V10.3H2.3C3.79 10.3 5 11.51 5 13C5 14.49 3.79 15.7 2.3 15.7H2V19.5C2 20.6 2.9 21.5 4 21.5H7.8V21.2C7.8 19.71 9.01 18.5 10.5 18.5C11.99 18.5 13.2 19.71 13.2 21.2V21.5H17C18.1 21.5 19 20.6 19 19.5V15.5C20.38 15.5 21.5 14.38 21.5 13C21.5 11.62 20.38 10.5 19 10.5V6.5C19 5.4 18.1 4.5 17 4.5H13C13 3.12 11.88 2 10.5 2Z" /></svg>
