<svg viewBox="0 0 24 24" xmlns="http://www.w3.org/2000/svg"> <path d="M3 6H14V8H3V6Z" /> <path d="M3 10H14V12H3V10Z" /> <path d="M3 14H10V16H3V14Z" /> <path d="M16.5869 16.7639C16.5744 16.9871 16.5681 17.2144 16.5681 17.4458H17.7744C17.7744 17 17.8258 16.6846 17.9285 16.4996C18.0827 16.2138 18.283 15.9684 18.5296 15.7635C18.7761 15.5587 18.9919 15.3211 19.1771 15.0507C19.278 14.9155 19.3521 14.7674 19.3994 14.6063C19.4466 14.4451 19.4702 14.2757 19.4702 14.0979C19.4702 13.4985 19.2417 12.999 18.7846 12.5994C18.3275 12.1998 17.7914 12 17.1765 12C16.6446 12 16.1709 12.1502 15.7553 12.4506C15.3398 12.7509 15.0489 13.1514 14.8827 13.6521L15.9806 14.125C16.0709 13.8389 16.2212 13.6035 16.4317 13.4187C16.6421 13.234 16.8903 13.1417 17.1765 13.1417C17.4592 13.1417 17.7101 13.2337 17.9291 13.4179C18.1482 13.602 18.2577 13.8363 18.2577 14.1209C18.1855 14.4389 18.1244 14.6312 18.0744 14.6977C17.891 14.9639 17.6702 15.1968 17.4119 15.3964C17.1535 15.596 16.9423 15.8391 16.7781 16.1257C16.6631 16.328 16.5994 16.5408 16.5869 16.7639Z" /> <path d="M16.5779 19.7607C16.7442 19.9202 16.9437 20 17.1765 20C17.4116 20 17.6089 19.9194 17.7684 19.7583C17.9279 19.5972 18.0077 19.4014 18.0077 19.1709C18.0077 18.9404 17.9271 18.7429 17.766 18.5782C17.6049 18.4136 17.4081 18.3312 17.1756 18.3312C16.9431 18.3312 16.7438 18.4134 16.5777 18.5776C16.4116 18.7418 16.3285 18.9389 16.3285 19.1688C16.3285 19.4039 16.4117 19.6012 16.5779 19.7607Z" /> </svg>
