<svg viewBox="0 0 24 24" xmlns="http://www.w3.org/2000/svg"><path fill-rule="evenodd" clip-rule="evenodd" d="M12.3627 3.01563C16.1583 3.03219 17.9773 4.17518 18.3988 4.55808C19.7991 5.75705 20.5126 8.62611 19.9909 12.8293C19.5365 16.4998 17.0742 17.0739 16.1848 17.2812C16.0861 17.3042 16.0068 17.3227 15.9518 17.3404C15.7179 17.4169 13.543 17.9566 10.8094 17.7781C10.8094 17.7781 8.77206 20.236 8.1357 20.875C8.03636 20.9741 7.91956 21.0144 7.8416 20.9954C7.73323 20.9687 7.70313 20.8389 7.70313 20.6493C7.70493 20.3781 7.72059 17.2923 7.72059 17.2923C3.87301 16.2233 3.96235 12.303 4.01307 10.0776C4.01481 10.0011 4.01651 9.92658 4.018 9.85428C4.06285 7.67848 4.47194 5.89552 5.68627 4.69655C7.86809 2.72033 12.3627 3.01563 12.3627 3.01563ZM11.6899 5.42747C11.6909 5.28733 11.8053 5.17451 11.9454 5.17548C13.4181 5.18574 14.6629 5.676 15.6623 6.6503C16.6701 7.63274 17.1685 8.97024 17.1811 10.6314C17.1822 10.7715 17.0695 10.886 16.9293 10.8871C16.7892 10.8881 16.6747 10.7754 16.6736 10.6353C16.6618 9.07868 16.1987 7.88196 15.308 7.01372C14.409 6.13732 13.2928 5.6924 11.9419 5.683C11.8017 5.68202 11.6889 5.56762 11.6899 5.42747ZM12.4095 6.49251C12.2697 6.48228 12.1481 6.5873 12.1379 6.72708C12.1276 6.86685 12.2327 6.98845 12.3724 6.99868C13.3386 7.0694 14.0643 7.39278 14.5833 7.95936C15.104 8.5283 15.3596 9.23749 15.3407 10.1064C15.3377 10.2466 15.4488 10.3626 15.589 10.3656C15.7291 10.3687 15.8451 10.2575 15.8482 10.1174C15.8695 9.13208 15.5757 8.29192 14.9577 7.61662C14.3329 6.93462 13.4751 6.5705 12.4095 6.49251ZM12.7892 7.854C12.6492 7.8467 12.5299 7.95424 12.5226 8.0942C12.5153 8.23415 12.6228 8.35353 12.7627 8.36083C13.2008 8.38369 13.4987 8.51161 13.694 8.71347C13.8904 8.91656 14.0163 9.22903 14.0391 9.68802C14.046 9.828 14.1651 9.93584 14.3051 9.9289C14.4451 9.92195 14.5529 9.80285 14.546 9.66287C14.5194 9.12668 14.3679 8.68022 14.0588 8.36063C13.7485 8.03982 13.3128 7.88132 12.7892 7.854ZM13.375 12.8678C13.183 13.1044 12.8262 13.0743 12.8262 13.0743C10.2191 12.4087 9.52131 9.76787 9.52131 9.76787C9.52131 9.76787 9.49 9.41116 9.72781 9.2191L10.1989 8.84463C10.4325 8.66462 10.5815 8.22783 10.3437 7.80128C10.1613 7.4811 9.96298 7.17026 9.74948 6.86992C9.54208 6.58666 9.05894 6.00658 9.05713 6.00478C8.82414 5.72994 8.48157 5.66613 8.12035 5.85427L8.11631 5.85522L8.11282 5.85607C7.75354 6.06308 7.42959 6.32606 7.15316 6.63512L7.15033 6.63881L7.14774 6.64204C6.92458 6.91136 6.79685 7.17536 6.76454 7.43404C6.75783 7.47218 6.75551 7.51096 6.75761 7.54963C6.75641 7.66386 6.7738 7.77752 6.80909 7.88617L6.82143 7.8946C6.93401 8.29436 7.21577 8.96022 7.82805 10.0704C8.17827 10.7125 8.58217 11.3239 9.03546 11.8979C9.26256 12.1857 9.50598 12.4601 9.76453 12.72L9.77379 12.7293C9.77992 12.7355 9.78601 12.7417 9.79223 12.7477L9.87531 12.8308C10.1352 13.0893 10.4097 13.3328 10.6974 13.5599C11.2715 14.0132 11.883 14.4171 12.5252 14.7673C13.6351 15.3795 14.3016 15.6613 14.7007 15.7739L14.7091 15.7862C14.8178 15.8216 14.9314 15.8391 15.0457 15.838C15.0844 15.8399 15.1231 15.8375 15.1613 15.8308C15.4204 15.8001 15.6842 15.6725 15.9527 15.4482L15.9543 15.4471L15.9559 15.4456L15.9572 15.4444L15.9596 15.4428C16.2687 15.1663 16.5317 14.8423 16.7389 14.4831L16.7396 14.4796L16.7404 14.4756C16.9286 14.1143 16.8648 13.7718 16.5884 13.5385C16.5884 13.5385 16.5656 13.5199 16.5275 13.4886C16.3709 13.3595 15.9511 13.0136 15.7233 12.8461C15.4232 12.6327 15.1127 12.4343 14.7928 12.2519C14.366 12.0141 13.9301 12.1631 13.7495 12.3967L13.375 12.8678Z" /></svg>
