<svg viewBox="0 0 24 24" xmlns="http://www.w3.org/2000/svg">
<path fill-rule="evenodd" clip-rule="evenodd" d="M22.7742 11.6679C22.7742 4.86325 20.3772 1.74193 12.3871 1.74193C4.39702 1.74193 2 4.86325 2 11.6679C2 16.5105 3.21402 19.4877 6.79404 20.8019V23.0929C6.79404 23.9362 7.85216 24.3214 8.40026 23.6777L10.2476 21.5079C10.9116 21.5653 11.6238 21.5938 12.3871 21.5938C20.3772 21.5938 22.7742 18.4725 22.7742 11.6679ZM10.689 19.9428C11.2187 19.9848 11.784 20.0057 12.3871 20.0057C19.1479 20.0057 21.1762 17.3838 21.1762 11.6679C21.1762 5.95199 19.1479 3.33008 12.3871 3.33008C5.62626 3.33008 3.59801 5.95199 3.59801 11.6679C3.59801 15.7081 4.61136 18.2024 7.59305 19.3177V22.7119C7.59305 23.0078 7.96432 23.143 8.15664 22.9171L10.689 19.9428Z" fill="#BFC8D0"/>
<path d="M12.3871 19.4406C11.7762 19.4406 11.2035 19.4194 10.667 19.3767L8.10171 22.4011C7.9069 22.6308 7.53081 22.4934 7.53081 22.1925V18.7411C4.51039 17.607 3.48389 15.0706 3.48389 10.9623C3.48389 5.14999 5.53848 2.48387 12.3871 2.48387C19.2357 2.48387 21.2903 5.14999 21.2903 10.9623C21.2903 16.7745 19.2357 19.4406 12.3871 19.4406Z" />
<path fill-rule="evenodd" clip-rule="evenodd" d="M22.7742 10.926C22.7742 4.12132 20.3772 1 12.3871 1C4.39702 1 2 4.12132 2 10.926C2 15.7686 3.21402 18.7457 6.79404 20.06V22.351C6.79404 23.1943 7.85216 23.5795 8.40026 22.9357L10.2476 20.766C10.9116 20.8234 11.6238 20.8519 12.3871 20.8519C20.3772 20.8519 22.7742 17.7306 22.7742 10.926ZM10.689 19.2008C11.2187 19.2429 11.784 19.2637 12.3871 19.2637C19.1479 19.2637 21.1762 16.6418 21.1762 10.926C21.1762 5.21006 19.1479 2.58815 12.3871 2.58815C5.62626 2.58815 3.59801 5.21006 3.59801 10.926C3.59801 14.9661 4.61136 17.4605 7.59305 18.5758V21.97C7.59305 22.2659 7.96432 22.401 8.15664 22.1751L10.689 19.2008Z" fill="white"/>
<path d="M9.01798 9.14819L8.97732 9.1707L8.94151 9.20032C8.70701 9.39431 8.36132 9.92012 8.66353 10.566C8.88993 11.0499 9.39991 12.0513 10.3013 12.8085C11.1766 13.5437 12.1137 13.942 12.7383 14.0737L12.7894 14.0845H12.8296C12.8299 14.0845 12.8303 14.0846 12.8306 14.0846L12.8519 14.0879L12.8851 14.0937C12.8904 14.0946 12.8961 14.0956 12.902 14.0967C13.0904 14.1302 13.5952 14.22 14.0161 13.8006C14.2525 13.5651 14.4684 13.3202 14.568 13.2022C14.5745 13.197 14.5856 13.1887 14.6016 13.1789C14.6284 13.1625 14.6628 13.1458 14.7026 13.1334C14.7787 13.1096 14.8743 13.1007 14.989 13.1395C15.4863 13.3076 16.0864 13.6914 16.3833 13.8912C16.6107 14.0442 17.1281 14.4149 17.3626 14.5843L17.3629 14.5844C17.3623 14.584 17.3621 14.5838 17.3621 14.5839C17.362 14.5839 17.3699 14.5903 17.3804 14.6035C17.3921 14.6181 17.4016 14.6343 17.4077 14.6501C17.4134 14.6649 17.416 14.6788 17.4157 14.6934C17.4154 14.7072 17.4124 14.7326 17.3941 14.7719C17.316 14.939 17.0617 15.2846 16.7081 15.5912C16.3455 15.9056 15.9914 16.0806 15.7312 16.0806C15.7397 16.0806 15.7394 16.0806 15.7284 16.0788C15.7112 16.0761 15.6678 16.0692 15.5903 16.0518C15.4804 16.0271 15.33 15.9879 15.1449 15.9322C14.7751 15.821 14.2773 15.647 13.7016 15.3993C12.5488 14.9034 11.0985 14.1184 9.74179 12.9636C8.89317 12.2412 8.08842 11.2384 7.45957 10.2954C6.82356 9.34164 6.4057 8.5069 6.29523 8.13446L6.28428 8.09753L6.26779 8.06271C6.24629 8.01729 6.21043 7.9053 6.20973 7.77762C6.20906 7.65673 6.23909 7.55235 6.30933 7.46818C6.61503 7.10184 6.93112 6.75006 7.63595 6.40908C7.68723 6.38427 7.77501 6.35991 7.86025 6.35854C7.93198 6.35738 7.95855 6.37216 7.96062 6.37307C8.23487 6.61384 8.65907 7.03788 8.94311 7.39763C9.09204 7.58626 9.2725 7.82649 9.42285 8.03524C9.49804 8.13963 9.56389 8.23363 9.6136 8.30776C9.65123 8.36385 9.67109 8.39614 9.67936 8.40967C9.68063 8.41519 9.68232 8.42339 9.68401 8.43444C9.68896 8.46663 9.69139 8.5072 9.68799 8.54921C9.68091 8.63651 9.65373 8.6885 9.62097 8.7185L9.95867 9.08723L9.62097 8.7185C9.41376 8.90827 9.12851 9.08697 9.01798 9.14819Z" fill="white" stroke="white" stroke-linecap="round"/>
</svg>
