<svg viewBox="0 0 24 24" xmlns="http://www.w3.org/2000/svg">
    <path fill-rule="evenodd" clip-rule="evenodd" d="M22.7742 10.926C22.7742 4.12132 20.3772 1 12.3871 1C4.39702 1 2 4.12132 2 10.926C2 15.7686 3.21402 18.7457 6.79404 20.06V22.351C6.79404 23.1943 7.85216 23.5795 8.40026 22.9357L10.2476 20.766C10.9116 20.8234 11.6238 20.8519 12.3871 20.8519C20.3772 20.8519 22.7742 17.7306 22.7742 10.926ZM10.689 19.2008C11.2187 19.2429 11.784 19.2637 12.3871 19.2637C19.1479 19.2637 21.1762 16.6418 21.1762 10.926C21.1762 5.21006 19.1479 2.58815 12.3871 2.58815C5.62626 2.58815 3.59801 5.21006 3.59801 10.926C3.59801 14.9661 4.61136 17.4605 7.59305 18.5758V21.97C7.59305 22.2659 7.96432 22.401 8.15664 22.1751L10.689 19.2008Z" />
    <path d="M12.2196 5.09261C12.2196 4.88112 12.4018 4.70967 12.6265 4.70967C12.7883 4.70967 12.9486 4.71603 13.1071 4.72848C13.1411 4.73116 13.175 4.73411 13.2089 4.73735C15.9179 4.99629 18.0658 7.0419 18.3012 9.60246C18.3019 9.60973 18.3025 9.61699 18.3031 9.62426C18.316 9.77149 18.3226 9.9204 18.3226 10.0708C18.3226 10.2822 18.1405 10.4537 17.9158 10.4537C17.8213 10.4537 17.7343 10.4234 17.6652 10.3725C17.6624 10.3705 17.6597 10.3684 17.6569 10.3662C17.5665 10.296 17.5089 10.1897 17.5089 10.0708C17.5089 9.92645 17.5018 9.7837 17.488 9.6428C17.4866 9.62882 17.4852 9.61486 17.4837 9.60092C17.2487 7.42309 15.3979 5.69484 13.0773 5.49487C13.0729 5.49449 13.0684 5.49411 13.064 5.49374C12.9199 5.48169 12.7739 5.47554 12.6265 5.47554C12.4768 5.47554 12.346 5.39948 12.2753 5.2862C12.2754 5.2862 12.2753 5.2862 12.2753 5.2862" />
    <path d="M12.2196 5.09261C12.2196 5.1587 12.2374 5.22088 12.2687 5.27513Z" />
    <path d="M8.28785 5.99501C8.05504 5.79086 7.64884 5.84741 7.41821 5.95898C6.6239 6.34325 6.25412 6.75395 5.92543 7.14783C5.59675 7.54172 5.71544 8.06449 5.81587 8.27665C6.08065 9.16929 7.62437 11.8178 9.41771 13.3443C12.2252 15.734 15.4025 16.5806 15.7312 16.5806C16.6214 16.5806 17.6143 15.4818 17.8471 14.9835C18.0334 14.5848 17.7969 14.281 17.6554 14.1789C17.4225 14.0108 16.898 13.6349 16.6625 13.4764C16.368 13.2783 15.7175 12.858 15.1491 12.6658C14.6945 12.5121 14.3297 12.7299 14.2042 12.858C14.1243 12.954 13.9043 13.2062 13.6632 13.4464C13.4277 13.681 13.1546 13.6332 12.9713 13.6012C12.9201 13.5922 12.8759 13.5845 12.8415 13.5845C12.3005 13.4704 11.4377 13.1101 10.6229 12.4256C9.80802 11.7411 9.33554 10.8225 9.11641 10.3541C8.94112 9.97948 9.13924 9.68566 9.26021 9.58559C9.39032 9.51354 9.71215 9.31299 9.95867 9.08723C10.2668 8.80503 10.1983 8.33669 10.1367 8.20459C10.0751 8.0725 9.64368 7.47807 9.33554 7.08779C9.02739 6.69751 8.57888 6.25019 8.28785 5.99501Z" />
    <path d="M12.2687 7.97355C12.2374 8.02781 12.2196 8.08999 12.2196 8.15608C12.2196 8.36757 12.4018 8.53902 12.6265 8.53902C12.7721 8.53902 12.9133 8.55703 13.0477 8.59081C13.0688 8.59612 13.0897 8.60181 13.1104 8.60788C13.6427 8.7637 14.0579 9.1698 14.2005 9.67993C14.2005 9.67992 14.2005 9.67993 14.2005 9.67993C14.2012 9.68259 14.202 9.68527 14.2027 9.68795C14.2362 9.8103 14.2539 9.93857 14.2539 10.0708C14.2539 10.2822 14.4361 10.4537 14.6608 10.4537C14.7563 10.4537 14.8441 10.4227 14.9135 10.3709C14.9258 10.3617 14.9375 10.3519 14.9485 10.3415C15.0221 10.2722 15.0677 10.1765 15.0677 10.0708C15.0677 9.90009 15.0479 9.73378 15.0104 9.57373C14.9956 9.51064 14.9781 9.44853 14.9579 9.38752C14.6972 8.59867 13.997 7.99207 13.1269 7.82146C13.1241 7.82091 13.1213 7.82037 13.1185 7.81983C12.9595 7.78922 12.795 7.77315 12.6265 7.77315C12.4768 7.77315 12.346 7.8492 12.2753 7.96249" />
    <path d="M12.2687 6.44181C12.2374 6.49607 12.2196 6.55825 12.2196 6.62434C12.2196 6.69497 12.2399 6.76113 12.2753 6.81793C12.2797 6.82491 12.2843 6.83175 12.2891 6.83845C12.3622 6.94031 12.486 7.00728 12.6265 7.00728C12.7768 7.00728 12.9248 7.01687 13.0697 7.03544C13.1414 7.04463 13.2123 7.05601 13.2825 7.06952C14.6236 7.32781 15.6643 8.36239 15.8513 9.65264C15.8527 9.66194 15.854 9.67125 15.8553 9.68058C15.8725 9.80835 15.8814 9.93857 15.8814 10.0708C15.8814 10.1924 15.9417 10.3007 16.0356 10.3709C16.0437 10.377 16.0521 10.3828 16.0608 10.3883C16.1257 10.4296 16.204 10.4537 16.2883 10.4537C16.3838 10.4537 16.4716 10.4227 16.541 10.3709C16.5532 10.3617 16.5649 10.3519 16.576 10.3415C16.6496 10.2722 16.6951 10.1765 16.6951 10.0708C16.6951 9.90937 16.6845 9.75032 16.6639 9.59418C16.6508 9.49455 16.6336 9.39611 16.6125 9.29901C16.2649 7.70013 14.8585 6.46423 13.1129 6.26849C13.1065 6.26778 13.1001 6.26707 13.0937 6.26638" />
</svg>
