<svg viewBox="0 0 24 24" xmlns="http://www.w3.org/2000/svg"><path d="M16.1 13.3L14.65 11.85C14.8 11.0667 14.575 10.3333 13.975 9.65C13.375 8.96667 12.6 8.7 11.65 8.85L10.2 7.4C10.4833 7.26667 10.7707 7.16667 11.062 7.1C11.354 7.03334 11.6667 7 12 7C13.25 7 14.3127 7.43734 15.188 8.312C16.0627 9.18734 16.5 10.25 16.5 11.5C16.5 11.8333 16.4667 12.146 16.4 12.438C16.3333 12.7293 16.2333 13.0167 16.1 13.3ZM19.3 16.45L17.85 15.05C18.4833 14.5667 19.046 14.0373 19.538 13.462C20.0293 12.8873 20.45 12.2333 20.8 11.5C19.9667 9.81667 18.7707 8.479 17.212 7.487C15.654 6.49567 13.9167 6 12 6C11.5167 6 11.0417 6.03334 10.575 6.1C10.1083 6.16667 9.65 6.26667 9.2 6.4L7.65 4.85C8.33333 4.56667 9.03333 4.354 9.75 4.212C10.4667 4.07067 11.2167 4 12 4C14.5167 4 16.7583 4.69567 18.725 6.087C20.6917 7.479 22.1167 9.28334 23 11.5C22.6167 12.4833 22.1127 13.396 21.488 14.238C20.8627 15.0793 20.1333 15.8167 19.3 16.45ZM19.8 22.6L15.6 18.45C15.0167 18.6333 14.4293 18.771 13.838 18.863C13.246 18.9543 12.6333 19 12 19C9.48333 19 7.24167 18.3043 5.275 16.913C3.30833 15.521 1.88333 13.7167 1 11.5C1.35 10.6167 1.79167 9.79567 2.325 9.037C2.85833 8.279 3.46667 7.6 4.15 7L1.4 4.2L2.8 2.8L21.2 21.2L19.8 22.6ZM5.55 8.4C5.06667 8.83334 4.625 9.30834 4.225 9.825C3.825 10.3417 3.48333 10.9 3.2 11.5C4.03333 13.1833 5.229 14.5207 6.787 15.512C8.34567 16.504 10.0833 17 12 17C12.3333 17 12.6583 16.9793 12.975 16.938C13.2917 16.896 13.6167 16.85 13.95 16.8L13.05 15.85C12.8667 15.9 12.6917 15.9373 12.525 15.962C12.3583 15.9873 12.1833 16 12 16C10.75 16 9.68733 15.5627 8.812 14.688C7.93733 13.8127 7.5 12.75 7.5 11.5C7.5 11.3167 7.51233 11.1417 7.537 10.975C7.56233 10.8083 7.6 10.6333 7.65 10.45L5.55 8.4Z" /></svg>
