<svg viewBox="0 0 24 24" xmlns="http://www.w3.org/2000/svg"><path d="M19.4731 22.1384L16.4577 19.123C16.1115 19.3448 15.7468 19.5371 15.3635 19.6999C14.9801 19.8628 14.5834 19.9993 14.1731 20.1096V18.5596C14.3872 18.4827 14.5955 18.4042 14.7981 18.324C15.0006 18.2439 15.1923 18.1487 15.3731 18.0384L11.7885 14.4538V18.7884L7.50003 14.5H3.78853V9.50002H6.83465L1.9962 4.66157L3.05 3.60774L20.5268 21.0846L19.4731 22.1384ZM18.9846 16.7327L17.9096 15.6577C18.257 15.1154 18.5224 14.5337 18.7058 13.9125C18.8891 13.2914 18.9808 12.6455 18.9808 11.975C18.9808 10.4596 18.5401 9.09808 17.6587 7.89039C16.7773 6.68269 15.6154 5.84936 14.1731 5.39039V3.84042C16.041 4.33913 17.5593 5.33849 18.7279 6.83849C19.8964 8.33848 20.4807 10.0506 20.4807 11.975C20.4807 12.8519 20.3503 13.6939 20.0894 14.5009C19.8285 15.308 19.4602 16.0519 18.9846 16.7327ZM15.9231 13.6712L14.1731 11.9212V8.29617C14.8475 8.66283 15.3686 9.17918 15.7365 9.84519C16.1045 10.5112 16.2885 11.2295 16.2885 12C16.2885 12.2949 16.258 12.5824 16.1971 12.8625C16.1362 13.1426 16.0449 13.4122 15.9231 13.6712ZM11.7885 9.53657L9.63078 7.36927L11.7885 5.21162V9.53657Z" /></svg>
