<svg viewBox="0 0 24 24" xmlns="http://www.w3.org/2000/svg"><path fill-rule="evenodd" clip-rule="evenodd" d="M18.5099 5.61566C16.818 3.92977 14.5679 3.00086 12.1704 3C7.23015 3 3.20952 7.00091 3.2078 11.9187C3.20694 13.4909 3.61992 15.0254 4.40419 16.3777L3.1326 21L7.88378 19.7597C9.19275 20.4706 10.6667 20.8447 12.1665 20.8452H12.1704C17.1098 20.8452 21.1309 16.8438 21.1326 11.926C21.1334 9.5426 20.2022 7.30199 18.5099 5.61609V5.61566ZM12.1704 19.3389H12.1674C10.8309 19.3385 9.5198 18.9809 8.37585 18.3056L8.10381 18.1449L5.2843 18.8809L6.03677 16.145L5.85971 15.8645C5.11412 14.6841 4.72005 13.3198 4.72091 11.9192C4.72263 7.83188 8.06427 4.50627 12.1734 4.50627C14.1631 4.50713 16.0333 5.27908 17.4398 6.68058C18.8464 8.08165 19.6203 9.94461 19.6195 11.9252C19.6177 16.0129 16.2761 19.3385 12.1704 19.3385V19.3389ZM16.2563 13.7868C16.0324 13.6752 14.9315 13.1363 14.726 13.0619C14.5206 12.9875 14.3715 12.9503 14.2224 13.1735C14.0733 13.3968 13.644 13.8989 13.5133 14.0473C13.3827 14.1961 13.252 14.2145 13.0281 14.1029C12.8043 13.9912 12.0827 13.756 11.2271 12.9969C10.5615 12.4058 10.1119 11.6763 9.98135 11.453C9.8507 11.2298 9.9676 11.1091 10.0793 10.9984C10.1798 10.8983 10.3032 10.7379 10.4153 10.6079C10.5275 10.4779 10.5645 10.3847 10.6392 10.2363C10.714 10.0874 10.6766 9.95745 10.6208 9.84579C10.5649 9.73418 10.1171 8.63717 9.9302 8.19112C9.7484 7.75661 9.56365 7.81563 9.42655 7.80836C9.2959 7.80194 9.1468 7.80066 8.99725 7.80066C8.8477 7.80066 8.6053 7.85626 8.3999 8.07951C8.1945 8.30273 7.61605 8.84203 7.61605 9.93859C7.61605 11.0352 8.4184 12.0954 8.53055 12.2442C8.6427 12.3931 10.1098 14.6439 12.356 15.6096C12.8902 15.8392 13.3075 15.9765 13.6328 16.0792C14.1691 16.249 14.6573 16.225 15.0432 16.1677C15.4734 16.1036 16.3681 15.6284 16.5546 15.1079C16.7411 14.5874 16.7411 14.1409 16.6852 14.0481C16.6294 13.9553 16.4798 13.8993 16.2559 13.7877L16.2563 13.7868Z" /></svg>
