<svg viewBox="0 0 24 24" xmlns="http://www.w3.org/2000/svg"><path fill-rule="evenodd" clip-rule="evenodd" d="M12.985 17.5C13.277 17.5 13.6096 17.4958 13.9827 17.4875C14.1302 17.4842 15.1683 17.4478 15.1683 17.4478C15.9653 17.421 16.7489 17.3823 17.5192 17.3317C18.3102 17.2798 18.8838 17.2076 19.24 17.1151C19.6427 17.0073 19.9912 16.8069 20.2855 16.5142C20.5797 16.2214 20.78 15.8736 20.8863 15.4709C20.9775 15.1147 21.049 14.684 21.1009 14.1788C21.1528 13.6737 21.1923 13.1872 21.2192 12.7192C21.245 12.2944 21.2608 11.8626 21.2666 11.4239L21.2692 11.425V11.0385V11.0345C21.2692 10.4679 21.2525 9.90899 21.2192 9.35771C21.1923 8.88976 21.1528 8.40322 21.1009 7.89811C21.049 7.39297 20.9775 6.96228 20.8863 6.60603C20.78 6.20332 20.5797 5.85556 20.2855 5.56278C19.9912 5.27 19.6427 5.06967 19.24 4.96181C18.8838 4.86936 18.3102 4.79716 17.5192 4.74523C16.7282 4.69331 15.9231 4.6539 15.1038 4.62698C14.1512 4.59365 13.1294 4.57698 12.0384 4.57698C10.9475 4.57698 9.92573 4.59365 8.9731 4.62698C8.15386 4.6539 7.34874 4.69331 6.55772 4.74523C5.76671 4.79716 5.19307 4.86869 4.83682 4.95981C4.43411 5.06612 4.08636 5.26641 3.79357 5.56068C3.50079 5.85495 3.30046 6.20341 3.1926 6.60608C3.10013 6.9623 3.02794 7.39297 2.97602 7.89811L2.80775 11.0385C2.80775 11.6103 2.82441 12.1705 2.85775 12.7192C2.88466 13.1872 2.92409 13.6737 2.97602 14.1788C3.02794 14.684 3.09946 15.1147 3.1906 15.4709C3.2969 15.8736 3.49718 16.2214 3.79145 16.5142C4.08571 16.8069 4.43419 17.0073 4.83687 17.1151C5.19309 17.2076 5.76671 17.2798 6.55772 17.3317C7.34874 17.3836 8.15386 17.423 8.9731 17.45C9.92611 17.4833 10.9483 17.5 12.0396 17.5H12.985ZM10.19 8.27L10.19 13.81L14.99 11.04L10.19 8.27Z" /></svg>
