<?xml version="1.0" encoding="UTF-8"?>
<svg width="912px" height="302px" viewBox="0 0 912 302" version="1.1" xmlns="http://www.w3.org/2000/svg" xmlns:xlink="http://www.w3.org/1999/xlink">
    <!-- Generator: Sketch 43.2 (39069) - http://www.bohemiancoding.com/sketch -->
    <title>bridge</title>
    <desc>Created with Sketch.</desc>
    <defs></defs>
    <g id="Page-1" stroke="none" stroke-width="1" fill="none" fill-rule="evenodd">
        <g id="Logos-with-taglines-wide" transform="translate(-103.000000, -714.000000)" fill="#FF4F00">
            <g id="Group-5" transform="translate(103.000000, 714.000000)">
                <path d="M64.5984822,79.5288102 L64.5984822,104.873156 L83.221468,104.873156 C88.0712282,104.873156 92.0479719,103.756463 95.1518183,101.523042 C98.2556648,99.2896207 99.8075648,95.8424357 99.8075648,91.1813832 C99.8075648,87.2971728 98.1586711,84.3840587 94.8608342,82.4419535 C91.5629973,80.4998483 87.1982786,79.5288102 81.7665473,79.5288102 L64.5984822,79.5288102 Z M64.5984822,149.444248 L64.5984822,177.410423 L85.2583571,177.410423 C90.6900885,177.410423 95.103304,176.196625 98.4981361,173.768994 C101.892968,171.341362 103.590359,167.797073 103.590359,163.136021 C103.590359,160.417074 102.862906,158.183686 101.407978,156.435792 C99.9530496,154.687897 98.1586653,153.279892 96.0247708,152.211734 C93.8908763,151.143576 91.6115233,150.415298 89.1866432,150.026876 C86.7617631,149.638455 84.48241,149.444248 82.3485156,149.444248 L64.5984822,149.444248 Z M134.725663,124.68253 C139.575423,125.847793 144.328117,127.741318 148.983887,130.36316 C153.639657,132.985002 157.810388,136.286531 161.496205,140.267847 C165.182023,144.249162 168.091836,148.861593 170.22573,154.105277 C172.359625,159.348961 173.426556,165.175189 173.426556,171.584136 C173.426556,182.848347 171.147203,192.315967 166.588428,199.987283 C162.029654,207.658598 156.016041,213.873242 148.547411,218.6314 C141.07878,223.389557 132.54333,226.78819 122.940805,228.827401 C113.33828,230.866611 103.493415,231.886201 93.4059134,231.886201 L0,231.886201 L0,25.6356604 L84.6763888,25.6356604 C93.0179763,25.6356604 101.892904,26.2668352 111.301439,27.5292035 C120.709974,28.7915719 129.390914,31.3162708 137.344521,35.103376 C145.298127,38.8904811 151.893702,44.4253979 157.131443,51.7082924 C162.369184,58.9911869 164.988015,68.5559115 164.988015,80.4027532 C164.988015,91.4727528 162.223693,100.60051 156.694967,107.7863 C151.16624,114.972089 143.843212,120.312798 134.725663,123.808587 L134.725663,124.68253 Z M179.518875,78.6548673 L244.117357,78.6548673 L244.117357,96.1337267 L244.699325,96.1337267 C247.997162,89.91899 252.895347,84.7724885 259.394025,80.6940675 C265.892704,76.6156466 273.506713,74.5764668 282.236281,74.5764668 C287.474022,74.5764668 291.741747,75.0619858 295.039584,76.0330384 L289.801869,133.130646 C287.667975,132.548014 285.291628,132.111047 282.672758,131.819731 C280.053887,131.528415 277.67754,131.38276 275.543646,131.38276 C266.814077,131.38276 259.830528,133.907459 254.592787,138.956932 C249.355046,144.006406 246.736215,150.221049 246.736215,157.601049 L246.736215,231.886201 L179.518875,231.886201 L179.518875,78.6548673 Z M303.664111,78.6548673 L370.881451,78.6548673 L370.881451,231.886201 L303.664111,231.886201 L303.664111,78.6548673 Z M302.500175,34.3750901 C302.500175,29.7140377 303.421615,25.2958146 305.264524,21.1202884 C307.107433,16.9447623 309.629271,13.3033696 312.830112,10.1960013 C316.030954,7.088633 319.765213,4.61248601 324.033002,2.76748607 C328.300791,0.922486132 332.859497,0 337.709257,0 C342.365027,0 346.729746,0.922486132 350.803544,2.76748607 C354.877343,4.61248601 358.514608,7.088633 361.71545,10.1960013 C364.916292,13.3033696 367.438129,16.9447623 369.281038,21.1202884 C371.123947,25.2958146 372.045388,29.7140377 372.045388,34.3750901 C372.045388,39.2303531 371.123947,43.74568 369.281038,47.9212062 C367.438129,52.0967324 364.916292,55.6895731 361.71545,58.6998361 C358.514608,61.7100992 354.877343,64.0891424 350.803544,65.8370371 C346.729746,67.5849317 342.365027,68.458866 337.709257,68.458866 C332.859497,68.458866 328.300791,67.5849317 324.033002,65.8370371 C319.765213,64.0891424 316.030954,61.7100992 312.830112,58.6998361 C309.629271,55.6895731 307.107433,52.0967324 305.264524,47.9212062 C303.421615,43.74568 302.500175,39.2303531 302.500175,34.3750901 L302.500175,34.3750901 Z M377.075865,154.687906 C377.075865,144.783169 378.579268,135.072789 381.586119,125.556473 C384.59297,116.040158 389.006186,107.495023 394.825898,99.9208129 C400.64561,92.3466026 407.920141,86.229063 416.64971,81.5680105 C425.379278,76.906958 435.466628,74.5764668 446.912062,74.5764668 C454.283697,74.5764668 461.655222,75.9844719 469.026857,78.8005244 C476.398493,81.616577 482.315111,85.6463848 486.776891,90.8900689 L487.358859,90.8900689 L487.358859,11.6525729 L554.285214,11.6525729 L554.285214,231.886201 L494.051495,231.886201 L494.051495,215.863914 L493.469526,215.863914 C489.007747,222.07865 482.509166,226.982392 473.973588,230.575287 C465.43801,234.168181 456.417592,235.964602 446.912062,235.964602 C435.466628,235.964602 425.379278,233.634111 416.64971,228.973058 C407.920141,224.312006 400.64561,218.145914 394.825898,210.474599 C389.006186,202.803283 384.59297,194.112493 381.586119,184.401967 C378.579268,174.691441 377.075865,164.786853 377.075865,154.687906 L377.075865,154.687906 Z M439.346474,154.687906 C439.346474,162.067905 441.480336,168.233997 445.748125,173.186365 C450.015914,178.138733 456.223514,180.61488 464.371111,180.61488 C472.324718,180.61488 478.677808,178.090182 483.430573,173.040708 C488.183338,167.991234 490.559685,161.873695 490.559685,154.687906 C490.559685,147.890537 488.183338,141.967205 483.430573,136.917732 C478.677808,131.868258 472.324718,129.34356 464.371111,129.34356 C456.223514,129.34356 450.015914,131.868258 445.748125,136.917732 C441.480336,141.967205 439.346474,147.890537 439.346474,154.687906 L439.346474,154.687906 Z M561.748234,154.687906 C561.748234,144.783169 563.251637,135.072789 566.258488,125.556473 C569.265339,116.040158 573.678555,107.495023 579.498267,99.9208129 C585.317979,92.3466026 592.59251,86.229063 601.322079,81.5680105 C610.051647,76.906958 620.138997,74.5764668 631.584431,74.5764668 C639.732028,74.5764668 647.734012,76.1301276 655.590623,79.2374959 C663.447235,82.3448642 669.897319,87.2971582 674.94107,94.0945264 L675.814022,94.0945264 L675.814022,78.6548673 L738.957583,78.6548673 L738.957583,216.155228 C738.957583,232.857333 736.241759,246.743176 730.810027,257.813176 C725.378296,268.883176 718.152262,277.67107 709.131708,284.177122 C700.111154,290.683175 689.878313,295.247054 678.432879,297.868896 C666.987445,300.490738 655.348196,301.801639 643.514781,301.801639 C628.965501,301.801639 614.416438,299.908115 599.867158,296.12101 C585.317877,292.333904 572.611696,286.750436 561.748234,279.370436 L591.137633,234.799345 C598.509269,240.43145 606.268769,244.558361 614.416366,247.180203 C622.563963,249.802045 630.323462,251.112947 637.695098,251.112947 C642.544858,251.112947 647.152061,250.481772 651.516845,249.219404 C655.881629,247.957035 659.712882,246.112063 663.010719,243.684431 C666.308556,241.2568 668.927387,238.246582 670.867291,234.653687 C672.807195,231.060793 673.777133,226.933881 673.777133,222.272829 L673.777133,215.572599 L672.904181,215.572599 C669.218363,219.845231 663.738216,223.632279 656.463576,226.933858 C649.188936,230.235437 640.89597,231.886201 631.584431,231.886201 C619.751016,231.886201 609.469679,229.79847 600.74011,225.622943 C592.010542,221.447417 584.736011,215.815397 578.916299,208.726713 C573.096587,201.638029 568.780365,193.432757 565.967504,184.110652 C563.154643,174.788547 561.748234,164.981063 561.748234,154.687906 L561.748234,154.687906 Z M624.018843,154.687906 C624.018843,162.067905 626.152705,168.233997 630.420494,173.186365 C634.688283,178.138733 640.895883,180.61488 649.04348,180.61488 C656.997087,180.61488 663.350177,178.090182 668.102942,173.040708 C672.855707,167.991234 675.232054,161.873695 675.232054,154.687906 C675.232054,147.890537 672.855707,141.967205 668.102942,136.917732 C663.350177,131.868258 656.997087,129.34356 649.04348,129.34356 C640.895883,129.34356 634.688283,131.868258 630.420494,136.917732 C626.152705,141.967205 624.018843,147.890537 624.018843,154.687906 L624.018843,154.687906 Z M853.929024,134.878532 C853.929024,129.440637 851.940652,124.973862 847.963848,121.478073 C843.987045,117.982283 838.603892,116.234415 831.814228,116.234415 C824.442592,116.234415 818.719961,118.273595 814.646163,122.352016 C810.572364,126.430437 808.244514,130.6059 807.662543,134.878532 L853.929024,134.878532 Z M911.83487,156.727106 C911.83487,159.251843 911.786373,161.825093 911.689378,164.446935 C911.592383,167.068777 911.446892,169.253613 911.252902,171.001508 L808.244511,171.001508 C808.438502,173.720455 809.359942,176.14805 811.008861,178.284366 C812.657779,180.420682 814.694648,182.265654 817.119528,183.819338 C819.544408,185.373022 822.260233,186.538268 825.267084,187.31511 C828.273936,188.091952 831.329239,188.480367 834.433085,188.480367 C840.640778,188.480367 845.829944,187.363673 850.000737,185.130252 C854.171531,182.896831 857.323828,180.420684 859.457722,177.701737 L907.179124,201.880826 C900.389459,212.950826 890.544594,221.690168 877.644232,228.099115 C864.74387,234.508062 849.758336,237.712488 832.68718,237.712488 C821.629727,237.712488 810.863421,235.964619 800.387939,232.46883 C789.912457,228.973041 780.649554,223.777987 772.598952,216.883514 C764.548351,209.98904 758.098266,201.395354 753.248506,191.102196 C748.398746,180.809038 745.973902,168.865271 745.973902,155.270534 C745.973902,142.64685 748.204759,131.237154 752.666538,121.041101 C757.128317,110.845049 763.190427,102.202811 770.853048,95.1141265 C778.515669,88.0254426 787.536087,82.5390777 797.914574,78.6548673 C808.293061,74.7706569 819.398845,72.8285808 831.23226,72.8285808 C843.259665,72.8285808 854.219958,74.9163126 864.113469,79.0918388 C874.00698,83.2673649 882.493933,89.0935931 889.574582,96.5706982 C896.655232,104.047803 902.135379,112.932801 906.015187,123.225959 C909.894995,133.519116 911.83487,144.686054 911.83487,156.727106 L911.83487,156.727106 Z" id="bridge"></path>
            </g>
        </g>
    </g>
</svg>