<svg viewBox="0 0 1024 1024" fill="none" xmlns="http://www.w3.org/2000/svg"> <path d="M795.472 611.429C740.294 666.607 650.826 666.607 595.648 611.429L228.427 244.208C173.249 189.03 173.249 99.5611 228.427 44.3833C283.604 -10.7944 373.073 -10.7944 428.251 44.3833L795.472 411.604C850.65 466.782 850.65 556.251 795.472 611.429Z" fill="#FBD202"/> <path d="M795.472 411.619C850.65 466.797 850.65 556.266 795.472 611.443L428.208 978.708C373.03 1033.89 283.561 1033.89 228.383 978.708C173.206 923.53 173.206 834.061 228.383 778.883L595.648 411.619C650.826 356.441 740.294 356.441 795.472 411.619Z" fill="#F17522"/> <path fill-rule="evenodd" clip-rule="evenodd" d="M826.499 458.361C819.594 441.36 809.252 425.413 795.458 411.619C740.28 356.441 650.811 356.441 595.633 411.619L495.721 511.531L595.633 611.443C650.811 666.621 740.28 666.621 795.458 611.443C836.841 570.06 847.183 509.393 826.499 458.361Z" fill="#EA4918"/> </svg>
