<svg viewBox="0 0 161 40" fill="none" xmlns="http://www.w3.org/2000/svg"> <path d="M23.6402 23.639C21.4966 25.7826 18.0203 25.7826 15.8767 23.639L1.60886 9.37113C-0.53474 7.22753 -0.53474 3.75125 1.60886 1.60765C3.75246 -0.535953 7.22875 -0.535953 9.37234 1.60765L23.6402 15.8755C25.7838 18.0191 25.7838 21.4954 23.6402 23.639Z" fill="#FBD202"/> <path d="M23.6404 15.8756C25.784 18.0192 25.784 21.4955 23.6404 23.6391L9.37119 37.9083C7.22759 40.0519 3.7513 40.0519 1.6077 37.9083C-0.5359 35.7647 -0.5359 32.2884 1.6077 30.1448L15.8769 15.8756C18.0205 13.732 21.4968 13.732 23.6404 15.8756Z" fill="#F17522"/> <path fill-rule="evenodd" clip-rule="evenodd" d="M24.8456 17.6919C24.5774 17.0308 24.1753 16.4118 23.639 15.8756C21.4954 13.732 18.0192 13.732 15.8756 15.8756L11.9932 19.758L15.8756 23.6404C18.0192 25.784 21.4954 25.784 23.639 23.6404C25.2464 22.033 25.6486 19.6752 24.8456 17.6932V17.6919Z" fill="#EA4918"/> <path d="M45.4995 34.1714C41.5206 34.1714 38.3908 33.1321 36.1102 31.0534C33.8539 28.9505 32.7257 25.7721 32.7257 21.518V20.0315C32.7257 17.3002 33.2595 14.9798 34.327 13.0704C35.4188 11.1367 36.9473 9.67436 38.9125 8.68335C40.9019 7.66818 43.2189 7.1606 45.8635 7.1606C49.3814 7.1606 52.2322 8.01866 54.4157 9.73478C56.6236 11.4267 57.9701 13.9647 58.4553 17.3486H52.8145C52.5718 15.6325 51.8925 14.3031 50.7765 13.3604C49.6604 12.3936 48.0228 11.9102 45.8635 11.9102C43.413 11.9102 41.5206 12.599 40.1862 13.9768C38.8518 15.3303 38.1846 17.4211 38.1846 20.2491V21.3368C38.1846 23.9472 38.8397 25.9171 40.1498 27.2465C41.46 28.5759 43.3402 29.2406 45.7907 29.2406C48.0955 29.2406 49.7939 28.733 50.8857 27.7178C51.9774 26.6785 52.6446 25.2162 52.8873 23.3308H58.6009C58.334 25.5787 57.7032 27.5124 56.7085 29.1318C55.7138 30.7513 54.2944 31.9961 52.4505 32.8662C50.6066 33.7364 48.2896 34.1714 45.4995 34.1714Z" fill="#262626"/> <path d="M61.3271 33.5551V6.83429H66.4584V16.6235C67.162 15.2457 68.1568 14.158 69.4426 13.3604C70.7528 12.5386 72.3662 12.1277 74.2829 12.1277C77.0972 12.1277 79.2323 12.9495 80.688 14.5931C82.1679 16.2125 82.9079 18.4242 82.9079 21.228V33.5551H77.5582V22.7145C77.5582 20.9017 77.17 19.4273 76.3936 18.2912C75.6173 17.131 74.2707 16.5509 72.3541 16.5509C70.3889 16.5509 68.9089 17.1552 67.9142 18.3637C66.9437 19.5481 66.4584 21.1917 66.4584 23.2946V33.5551H61.3271Z" fill="#262626"/> <path d="M97.447 34.1714C94.7054 34.1714 92.4733 33.7364 90.7507 32.8662C89.0281 31.9719 87.7544 30.7392 86.9295 29.1681C86.1288 27.5728 85.7285 25.7117 85.7285 23.5846V23.2583C85.7285 21.1071 86.1895 19.1976 87.1114 17.5299C88.0576 15.8379 89.4284 14.5206 91.2238 13.5779C93.0192 12.6111 95.1785 12.1277 97.7017 12.1277C100.298 12.1277 102.457 12.6111 104.18 13.5779C105.902 14.5206 107.188 15.8016 108.037 17.4211C108.911 19.0405 109.347 20.8533 109.347 22.8595V25.0711H90.8963C91.1631 26.6422 91.8546 27.8387 92.9706 28.6605C94.0867 29.4823 95.6758 29.8932 97.7381 29.8932C99.2423 29.8932 100.431 29.6878 101.305 29.2769C102.202 28.8418 102.857 28.2133 103.27 27.3915H109.093C108.243 29.6636 106.836 31.3676 104.871 32.5036C102.93 33.6155 100.455 34.1714 97.447 34.1714ZM97.8109 16.2609C95.8699 16.2609 94.3172 16.6839 93.1526 17.5299C92.0123 18.3758 91.2845 19.5723 90.969 21.1192H104.07C103.634 17.8803 101.547 16.2609 97.8109 16.2609Z" fill="#262626"/> <path d="M123.305 34.1714C119.326 34.1714 116.367 33.2288 114.426 31.3435C112.485 29.4581 111.514 26.8235 111.514 23.4396V23.1133C111.514 20.7929 112.012 18.823 113.006 17.2036C114.025 15.5599 115.432 14.3031 117.228 13.4329C119.023 12.5628 121.085 12.1277 123.415 12.1277C126.811 12.1277 129.541 12.9012 131.603 14.4481C133.665 15.9708 134.854 18.2429 135.169 21.2642V21.3005H129.492V21.228C129.031 18.11 127.017 16.5509 123.451 16.5509C121.437 16.5509 119.86 17.119 118.72 18.255C117.58 19.3668 117.009 20.9863 117.009 23.1133V23.4034C117.009 25.4095 117.543 26.9565 118.611 28.0441C119.703 29.1318 121.304 29.6757 123.415 29.6757C125.283 29.6757 126.702 29.2769 127.673 28.4792C128.667 27.6574 129.286 26.4489 129.529 24.8536V24.8173H135.169V24.8899C134.927 27.9112 133.787 30.2195 131.749 31.8148C129.735 33.3859 126.92 34.1714 123.305 34.1714Z" fill="#262626"/> <path d="M138.073 6.83429H143.24V22.7145L153.831 12.7078H160.745L152.193 20.7567L161 33.5551H154.813L148.153 23.6209L143.24 28.1892V33.5551H138.073V6.83429Z" fill="#262626"/> </svg>
