<?xml version="1.0" encoding="UTF-8"?>
<svg width="120px" height="31px" viewBox="0 0 120 31" version="1.1" xmlns="http://www.w3.org/2000/svg" xmlns:xlink="http://www.w3.org/1999/xlink">
    <!-- Generator: Sketch 43.1 (39012) - http://www.bohemiancoding.com/sketch -->
    <title>Check</title>
    <desc>Created with Sketch.</desc>
    <defs></defs>
    <g id="Symbols" stroke="none" stroke-width="1" fill="none" fill-rule="evenodd">
        <g id="branding/logo/wordmark-medium" fill="#2E77FC">
            <path d="M0,16.0592784 C0,13.7955213 0.39992481,11.7448545 1.19978643,9.90721649 C1.99964804,8.06957844 3.09277586,6.49828831 4.47920266,5.19329897 C5.86562947,3.88830963 7.49865577,2.88295026 9.37833057,2.17719072 C11.2580054,1.47143118 13.2642948,1.1185567 15.3972592,1.1185567 C17.5835476,1.1185567 19.6498258,1.47143118 21.5961557,2.17719072 C23.5424856,2.88295026 25.1688465,3.83504555 26.4752872,5.03350515 L20.6363266,12.064433 C20.1030855,11.3719897 19.4365441,10.846007 18.6366825,10.4864691 C17.8368209,10.1269312 16.9436555,9.94716495 15.9571595,9.94716495 C15.1572979,9.94716495 14.4107716,10.0869831 13.7175582,10.3666237 C13.0243448,10.6462643 12.4177921,11.0524028 11.8978821,11.5850515 C11.377972,12.1177003 10.9713818,12.7635271 10.6780992,13.5225515 C10.3848166,14.281576 10.2381775,15.1271431 10.2381775,16.0592784 C10.2381775,16.9914136 10.391482,17.8236647 10.6980956,18.5560567 C11.0047093,19.2884487 11.4179649,19.9209595 11.937875,20.4536082 C12.457785,20.986257 13.0643376,21.3923955 13.757551,21.6720361 C14.4507644,21.9516767 15.1839599,22.0914948 15.9571595,22.0914948 C17.0503037,22.0914948 17.990127,21.8651225 18.7766576,21.4123711 C19.5631882,20.9596197 20.1830716,20.426979 20.6363266,19.814433 L26.4752872,26.8054124 C25.1955086,28.0837693 23.622471,29.1024447 21.7561272,29.8614691 C19.8897834,30.6204935 17.7701819,31 15.3972592,31 C13.2642948,31 11.2580054,30.6404675 9.37833057,29.9213918 C7.49865577,29.202316 5.86562947,28.1836406 4.47920266,26.8653351 C3.09277586,25.5470295 1.99964804,23.9757394 1.19978643,22.1514175 C0.39992481,20.3270957 0,18.2964029 0,16.0592784 Z M42.2878572,8.62886598 C43.7542701,8.62886598 44.9740408,8.89518634 45.9472058,9.42783505 C46.9203707,9.96048376 47.6935587,10.6462587 48.2667929,11.4851804 C48.840027,12.3241021 49.2399518,13.2628814 49.4665793,14.3015464 C49.6932067,15.3402114 49.8065188,16.3788608 49.8065188,17.4175258 L49.8065188,30.2010309 L40.5281704,30.2010309 L40.5281704,19.0154639 C40.5281704,17.9501665 40.3615351,17.2044695 40.0282594,16.7783505 C39.6949837,16.3522315 39.1950777,16.1391753 38.5285263,16.1391753 C37.9952853,16.1391753 37.5153755,16.3722056 37.0887826,16.8382732 C36.6621898,17.3043408 36.4488965,18.0433798 36.4488965,19.0554124 L36.4488965,30.2010309 L27.2105411,30.2010309 L27.2105411,0 L36.4488965,0 L36.4488965,11.5051546 L36.5288823,11.5051546 C37.0621234,10.732814 37.8219805,10.0603551 38.8084765,9.48775773 C39.7949725,8.91516037 40.9547545,8.62886598 42.2878572,8.62886598 Z M66.4589393,16.8981959 C66.4589393,16.1524877 66.1856573,15.5399509 65.6390852,15.060567 C65.0925131,14.5811832 64.3526522,14.3414948 63.4194803,14.3414948 C62.4063223,14.3414948 61.6198035,14.6211312 61.0599003,15.1804124 C60.4999972,15.7396935 60.1800574,16.3122823 60.1000712,16.8981959 L66.4589393,16.8981959 Z M73.4175226,19.8943299 C73.4175226,20.2405516 73.4108571,20.593426 73.3975261,20.9529639 C73.3841951,21.3125018 73.3641988,21.6121122 73.3375368,21.8518041 L59.180057,21.8518041 C59.206719,22.2246582 59.3333619,22.5575587 59.5599893,22.8505155 C59.7866168,23.1434723 60.0665641,23.3964766 60.3998398,23.6095361 C60.7331155,23.8225956 61.1063787,23.9823878 61.5196405,24.0889175 C61.9329023,24.1954473 62.3528234,24.2487113 62.7794162,24.2487113 C63.632602,24.2487113 64.3458012,24.0955771 64.9190354,23.7893041 C65.4922695,23.4830311 65.9255214,23.1434727 66.218804,22.7706186 L72.7776365,26.0863402 C71.8444646,27.604389 70.4913856,28.8028307 68.718359,29.681701 C66.9453325,30.5605714 64.8857197,31 62.5394589,31 C61.0197219,31 59.5400001,30.7603117 58.1002492,30.2809278 C56.6604983,29.801544 55.3874043,29.089137 54.280929,28.1436856 C53.1744538,27.1982341 52.2879538,26.0197665 51.6214025,24.6082474 C50.9548511,23.1967283 50.6215804,21.5588581 50.6215804,19.6945876 C50.6215804,17.9634793 50.9281895,16.3988472 51.5414167,15.0006443 C52.1546439,13.6024415 52.9878206,12.4173159 54.0409718,11.445232 C55.0941229,10.4731481 56.3338898,9.72079304 57.7603097,9.18814433 C59.1867296,8.65549562 60.7131093,8.38917526 62.3394945,8.38917526 C63.9925419,8.38917526 65.4989253,8.67546965 66.8586901,9.24806701 C68.2184548,9.82066437 69.3849022,10.6196255 70.3580672,11.6449742 C71.3312321,12.670323 72.0844239,13.8887386 72.6176649,15.3002577 C73.150906,16.7117768 73.4175226,18.2431189 73.4175226,19.8943299 Z M86.7105411,31 C84.9241834,31 83.2844917,30.7336796 81.7914167,30.2010309 C80.2983417,29.6683822 79.0052515,28.9093692 77.9121073,27.9239691 C76.818963,26.938569 75.9657901,25.7534434 75.3525629,24.3685567 C74.7393356,22.9836701 74.4327266,21.4256959 74.4327266,19.6945876 C74.4327266,17.9901118 74.746001,16.4387957 75.3725593,15.0405928 C75.9991176,13.6423899 76.8722867,12.4506063 77.992093,11.4652062 C79.1118993,10.4798061 80.4249857,9.72079304 81.9313918,9.18814433 C83.4377978,8.65549562 85.0708241,8.38917526 86.8305197,8.38917526 C87.5503951,8.38917526 88.2769252,8.44909734 89.0101317,8.5689433 C89.7433382,8.68878926 90.449872,8.85523948 91.1297544,9.06829897 C91.8096368,9.28135845 92.4361856,9.52104678 93.0094198,9.78737113 C93.582654,10.0536955 94.0692291,10.3466479 94.4691599,10.6662371 L89.8699786,17.2976804 C89.550034,16.9248263 89.1301129,16.6385319 88.6102029,16.4387887 C88.0902928,16.2390454 87.5903868,16.1391753 87.1104699,16.1391753 C86.6572149,16.1391753 86.2172977,16.2124134 85.7907048,16.3588918 C85.3641119,16.5053701 84.9841834,16.7317425 84.6509077,17.0380155 C84.317632,17.3442885 84.0443501,17.717137 83.8310536,18.1565722 C83.6177572,18.5960074 83.5111106,19.108674 83.5111106,19.6945876 C83.5111106,20.2805012 83.6177572,20.7931679 83.8310536,21.2326031 C84.0443501,21.6720383 84.317632,22.0315708 84.6509077,22.3112113 C84.9841834,22.5908519 85.3641119,22.8039082 85.7907048,22.9503866 C86.2172977,23.096865 86.6572149,23.1701031 87.1104699,23.1701031 C87.6437109,23.1701031 88.1636132,23.070233 88.6701922,22.8704897 C89.1767712,22.6707464 89.5900269,22.3977681 89.9099715,22.0515464 L94.5491457,28.5231959 C93.6692979,29.2156392 92.5295122,29.801544 91.1297544,30.2809278 C89.7299966,30.7603117 88.2569402,31 86.7105411,31 Z M104.162819,21.0528351 L104.162819,30.2010309 L94.9244637,30.2010309 L94.9244637,0 L104.162819,0 L104.162819,17.2177835 L104.282798,17.2177835 L109.281908,9.18814433 L120,9.18814433 L113.20121,18.6559278 L119.960007,30.2010309 L109.201922,30.2010309 L104.282798,21.0528351 L104.162819,21.0528351 Z" id="Check"></path>
        </g>
    </g>
</svg>