<?xml version="1.0" encoding="UTF-8"?>
<svg width="121px" height="55px" viewBox="0 0 121 55" version="1.1" xmlns="http://www.w3.org/2000/svg" xmlns:xlink="http://www.w3.org/1999/xlink">
    <!-- Generator: Sketch 42 (36781) - http://www.bohemiancoding.com/sketch -->
    <title>branding/logo/wordmark medium</title>
    <desc>Created with Sketch.</desc>
    <defs></defs>
    <g id="Symbols" stroke="none" stroke-width="1" fill="none" fill-rule="evenodd">
        <g id="branding/logo/wordmark-medium" fill="#2E77FC">
            <path d="M2,26.0592784 C2,23.7955213 2.39992481,21.7448545 3.19978643,19.9072165 C3.99964804,18.0695784 5.09277586,16.4982883 6.47920266,15.193299 C7.86562947,13.8883096 9.49865577,12.8829503 11.3783306,12.1771907 C13.2580054,11.4714312 15.2642948,11.1185567 17.3972592,11.1185567 C19.5835476,11.1185567 21.6498258,11.4714312 23.5961557,12.1771907 C25.5424856,12.8829503 27.1688465,13.8350456 28.4752872,15.0335052 L22.6363266,22.064433 C22.1030855,21.3719897 21.4365441,20.846007 20.6366825,20.4864691 C19.8368209,20.1269312 18.9436555,19.9471649 17.9571595,19.9471649 C17.1572979,19.9471649 16.4107716,20.0869831 15.7175582,20.3666237 C15.0243448,20.6462643 14.4177921,21.0524028 13.8978821,21.5850515 C13.377972,22.1177003 12.9713818,22.7635271 12.6780992,23.5225515 C12.3848166,24.281576 12.2381775,25.1271431 12.2381775,26.0592784 C12.2381775,26.9914136 12.391482,27.8236647 12.6980956,28.5560567 C13.0047093,29.2884487 13.4179649,29.9209595 13.937875,30.4536082 C14.457785,30.986257 15.0643376,31.3923955 15.757551,31.6720361 C16.4507644,31.9516767 17.1839599,32.0914948 17.9571595,32.0914948 C19.0503037,32.0914948 19.990127,31.8651225 20.7766576,31.4123711 C21.5631882,30.9596197 22.1830716,30.426979 22.6363266,29.814433 L28.4752872,36.8054124 C27.1955086,38.0837693 25.622471,39.1024447 23.7561272,39.8614691 C21.8897834,40.6204935 19.7701819,41 17.3972592,41 C15.2642948,41 13.2580054,40.6404675 11.3783306,39.9213918 C9.49865577,39.202316 7.86562947,38.1836406 6.47920266,36.8653351 C5.09277586,35.5470295 3.99964804,33.9757394 3.19978643,32.1514175 C2.39992481,30.3270957 2,28.2964029 2,26.0592784 Z M44.2878572,18.628866 C45.7542701,18.628866 46.9740408,18.8951863 47.9472058,19.4278351 C48.9203707,19.9604838 49.6935587,20.6462587 50.2667929,21.4851804 C50.840027,22.3241021 51.2399518,23.2628814 51.4665793,24.3015464 C51.6932067,25.3402114 51.8065188,26.3788608 51.8065188,27.4175258 L51.8065188,40.2010309 L42.5281704,40.2010309 L42.5281704,29.0154639 C42.5281704,27.9501665 42.3615351,27.2044695 42.0282594,26.7783505 C41.6949837,26.3522315 41.1950777,26.1391753 40.5285263,26.1391753 C39.9952853,26.1391753 39.5153755,26.3722056 39.0887826,26.8382732 C38.6621898,27.3043408 38.4488965,28.0433798 38.4488965,29.0554124 L38.4488965,40.2010309 L29.2105411,40.2010309 L29.2105411,10 L38.4488965,10 L38.4488965,21.5051546 L38.5288823,21.5051546 C39.0621234,20.732814 39.8219805,20.0603551 40.8084765,19.4877577 C41.7949725,18.9151604 42.9547545,18.628866 44.2878572,18.628866 Z M68.4589393,26.8981959 C68.4589393,26.1524877 68.1856573,25.5399509 67.6390852,25.060567 C67.0925131,24.5811832 66.3526522,24.3414948 65.4194803,24.3414948 C64.4063223,24.3414948 63.6198035,24.6211312 63.0599003,25.1804124 C62.4999972,25.7396935 62.1800574,26.3122823 62.1000712,26.8981959 L68.4589393,26.8981959 Z M76.4175226,29.8943299 C76.4175226,30.2405516 76.4108571,30.593426 76.3975261,30.9529639 C76.3841951,31.3125018 76.3641988,31.6121122 76.3375368,31.8518041 L62.180057,31.8518041 C62.206719,32.2246582 62.3333619,32.5575587 62.5599893,32.8505155 C62.7866168,33.1434723 63.0665641,33.3964766 63.3998398,33.6095361 C63.7331155,33.8225956 64.1063787,33.9823878 64.5196405,34.0889175 C64.9329023,34.1954473 65.3528234,34.2487113 65.7794162,34.2487113 C66.632602,34.2487113 67.3458012,34.0955771 67.9190354,33.7893041 C68.4922695,33.4830311 68.9255214,33.1434727 69.218804,32.7706186 L75.7776365,36.0863402 C74.8444646,37.604389 73.4913856,38.8028307 71.718359,39.681701 C69.9453325,40.5605714 67.8857197,41 65.5394589,41 C64.0197219,41 62.5400001,40.7603117 61.1002492,40.2809278 C59.6604983,39.801544 58.3874043,39.089137 57.280929,38.1436856 C56.1744538,37.1982341 55.2879538,36.0197665 54.6214025,34.6082474 C53.9548511,33.1967283 53.6215804,31.5588581 53.6215804,29.6945876 C53.6215804,27.9634793 53.9281895,26.3988472 54.5414167,25.0006443 C55.1546439,23.6024415 55.9878206,22.4173159 57.0409718,21.445232 C58.0941229,20.4731481 59.3338898,19.720793 60.7603097,19.1881443 C62.1867296,18.6554956 63.7131093,18.3891753 65.3394945,18.3891753 C66.9925419,18.3891753 68.4989253,18.6754696 69.8586901,19.248067 C71.2184548,19.8206644 72.3849022,20.6196255 73.3580672,21.6449742 C74.3312321,22.670323 75.0844239,23.8887386 75.6176649,25.3002577 C76.150906,26.7117768 76.4175226,28.2431189 76.4175226,29.8943299 Z M89.7105411,41 C87.9241834,41 86.2844917,40.7336796 84.7914167,40.2010309 C83.2983417,39.6683822 82.0052515,38.9093692 80.9121073,37.9239691 C79.818963,36.938569 78.9657901,35.7534434 78.3525629,34.3685567 C77.7393356,32.9836701 77.4327266,31.4256959 77.4327266,29.6945876 C77.4327266,27.9901118 77.746001,26.4387957 78.3725593,25.0405928 C78.9991176,23.6423899 79.8722867,22.4506063 80.992093,21.4652062 C82.1118993,20.4798061 83.4249857,19.720793 84.9313918,19.1881443 C86.4377978,18.6554956 88.0708241,18.3891753 89.8305197,18.3891753 C90.5503951,18.3891753 91.2769252,18.4490973 92.0101317,18.5689433 C92.7433382,18.6887893 93.449872,18.8552395 94.1297544,19.068299 C94.8096368,19.2813585 95.4361856,19.5210468 96.0094198,19.7873711 C96.582654,20.0536955 97.0692291,20.3466479 97.4691599,20.6662371 L92.8699786,27.2976804 C92.550034,26.9248263 92.1301129,26.6385319 91.6102029,26.4387887 C91.0902928,26.2390454 90.5903868,26.1391753 90.1104699,26.1391753 C89.6572149,26.1391753 89.2172977,26.2124134 88.7907048,26.3588918 C88.3641119,26.5053701 87.9841834,26.7317425 87.6509077,27.0380155 C87.317632,27.3442885 87.0443501,27.717137 86.8310536,28.1565722 C86.6177572,28.5960074 86.5111106,29.108674 86.5111106,29.6945876 C86.5111106,30.2805012 86.6177572,30.7931679 86.8310536,31.2326031 C87.0443501,31.6720383 87.317632,32.0315708 87.6509077,32.3112113 C87.9841834,32.5908519 88.3641119,32.8039082 88.7907048,32.9503866 C89.2172977,33.096865 89.6572149,33.1701031 90.1104699,33.1701031 C90.6437109,33.1701031 91.1636132,33.070233 91.6701922,32.8704897 C92.1767712,32.6707464 92.5900269,32.3977681 92.9099715,32.0515464 L97.5491457,38.5231959 C96.6692979,39.2156392 95.5295122,39.801544 94.1297544,40.2809278 C92.7299966,40.7603117 91.2569402,41 89.7105411,41 Z M107.162819,31.0528351 L107.162819,40.2010309 L97.9244637,40.2010309 L97.9244637,10 L107.162819,10 L107.162819,27.2177835 L107.282798,27.2177835 L112.281908,19.1881443 L123,19.1881443 L116.20121,28.6559278 L122.960007,40.2010309 L112.201922,40.2010309 L107.282798,31.0528351 L107.162819,31.0528351 Z" id="Check"></path>
        </g>
    </g>
</svg>