<?xml version="1.0" encoding="UTF-8" standalone="no"?>
<svg width="1024px" height="1024px" viewBox="0 0 1024 1024" version="1.1" xmlns="http://www.w3.org/2000/svg" xmlns:xlink="http://www.w3.org/1999/xlink">
    <!-- Generator: Sketch 39.1 (31720) - http://www.bohemiancoding.com/sketch -->
    <title>Logo Grey</title>
    <desc>Created with Sketch.</desc>
    <defs></defs>
    <g id="Page-1" stroke="none" stroke-width="1" fill="none" fill-rule="evenodd">
        <g id="Logo-Grey" fill="#F3F4F5">
            <path d="M71,512.5 C71,436.817803 84.3533408,368.259665 111.060423,306.823529 C137.767505,245.387393 174.266637,192.855833 220.558912,149.227273 C266.851188,105.598712 321.37733,71.9874174 384.138973,48.3923797 C446.900616,24.7973419 513.889876,13 585.108761,13 C658.108119,13 727.10038,24.7973419 792.087613,48.3923797 C857.074847,71.9874174 911.378432,103.817981 955,143.885027 L760.039275,378.94385 C742.234553,355.794002 719.978985,338.209285 693.271903,326.189171 C666.564821,314.169058 636.74236,308.159091 603.803625,308.159091 C577.096543,308.159091 552.170307,312.833509 529.024169,322.182487 C505.878031,331.531464 485.625464,345.109537 468.265861,362.917112 C450.906258,380.724688 437.330361,402.31605 427.537764,427.691845 C417.745168,453.06764 412.848943,481.336743 412.848943,512.5 C412.848943,543.663257 417.967723,571.487177 428.205438,595.972594 C438.443153,620.45801 452.241605,641.604189 469.601208,659.411765 C486.960812,677.21934 507.213379,690.797413 530.359517,700.14639 C553.505655,709.495368 577.986779,714.169786 603.803625,714.169786 C640.303304,714.169786 671.683655,706.60168 697.945619,691.465241 C724.207583,676.328801 744.905262,658.521493 760.039275,638.042781 L955,871.766043 C912.268669,914.504224 859.745528,948.560702 797.429003,973.936497 C735.112478,999.312293 664.339772,1012 585.108761,1012 C513.889876,1012 446.900616,999.980067 384.138973,975.93984 C321.37733,951.899612 266.851188,917.843135 220.558912,873.769385 C174.266637,829.695635 137.767505,777.164075 111.060423,716.173128 C84.3533408,655.182182 71,587.291818 71,512.5 L71,512.5 Z" id="Path"></path>
        </g>
    </g>
</svg>