<svg width="25px" height="36px" viewBox="0 0 25 36" version="1.1" xmlns="http://www.w3.org/2000/svg" xmlns:xlink="http://www.w3.org/1999/xlink">
  <!-- Generator: Sketch 3.8.3 (29802) - http://www.bohemiancoding.com/sketch -->
  <title>CD icon</title>
  <desc>Created with Sketch.</desc>
  <defs></defs>
  <g id="Symbols" stroke="none" stroke-width="1" fill="none" fill-rule="evenodd">
    <g id="C-icon" fill="rgb(243, 244, 245)">
      <g id="CD-icon">
        <polygon id="Shape" points="25 35.4304733 25 30.435591 0 30.435591 0 35.435591 11.6788749 35.435591 11.6788749 35.4304733"></polygon>
        <path d="M18.4626398,8.21779548 C16.8774637,6.43293493 15.7305421,5.59163347 13.2968305,5.59163347 C11.5764481,5.59163347 10.1591142,6.23306773 8.97489435,7.47410359 C7.79533681,8.71978752 7.21721375,10.3001328 7.21721375,12.187251 C7.21721375,14.1069057 7.79067453,15.7197875 8.97489435,16.9654714 C10.1544519,18.2111554 11.6090841,18.815405 13.3621025,18.815405 C16.0289282,18.815405 17.4788981,17.8067729 19.1340085,15.5524568 L22.8451856,19.6567065 C20.4814083,22.7848606 17.1385515,24.3698539 12.8539136,24.3698539 C9.37585067,24.3698539 6.50854676,23.2264276 4.24733961,20.9023904 C1.98613247,18.5783533 0.87184688,15.6500664 0.87184688,12.187251 C0.87184688,8.71978752 2.01876844,5.86122178 4.31727386,3.53718459 C6.64841525,1.21314741 9.51571916,0.037184595 12.9937821,0.037184595 C16.8075294,0.037184595 19.949908,1.4501992 22.3463214,4.2436919 L18.4626398,8.21779548 L18.4626398,8.21779548 Z" id="Shape"></path>
      </g>
    </g>
  </g>
</svg>
