<?xml version="1.0" encoding="UTF-8" standalone="no"?>
<svg width="1024px" height="1024px" viewBox="0 0 1024 1024" version="1.1" xmlns="http://www.w3.org/2000/svg" xmlns:xlink="http://www.w3.org/1999/xlink">
    <!-- Generator: Sketch 39.1 (31720) - http://www.bohemiancoding.com/sketch -->
    <title>Favicon</title>
    <desc>Created with Sketch.</desc>
    <defs></defs>
    <g id="Page-1" stroke="none" stroke-width="1" fill="none" fill-rule="evenodd">
        <g id="Favicon" fill="#2E77FC">
            <path d="M266,512.5 C266,470.302819 273.447055,432.077711 288.34139,397.823529 C303.235724,363.569347 323.591009,334.279979 349.407855,309.954545 C375.224701,285.629112 405.633511,266.88888 440.635196,253.733289 C475.636882,240.577697 512.996277,234 552.714502,234 C593.425682,234 631.902135,240.577697 668.145015,253.733289 C704.387895,266.88888 734.672587,284.636252 759,306.975936 L650.271903,438.034759 C640.342347,425.127386 627.930588,415.322894 613.036254,408.620989 C598.141919,401.919084 581.510162,398.568182 563.140483,398.568182 C548.246149,398.568182 534.344979,401.174439 521.436556,406.387032 C508.528133,411.599625 497.233432,419.170182 487.552115,429.09893 C477.870798,439.027679 470.299624,451.066106 464.838369,465.214572 C459.377113,479.363039 456.646526,495.12469 456.646526,512.5 C456.646526,529.87531 459.50123,545.388746 465.210725,559.040775 C470.92022,572.692804 478.615511,584.483016 488.296828,594.411765 C497.978145,604.340513 509.272846,611.91107 522.181269,617.123663 C535.089692,622.336256 548.742627,624.942513 563.140483,624.942513 C583.496074,624.942513 600.996654,620.722859 615.642749,612.283422 C630.288845,603.843986 641.831781,593.915387 650.271903,582.497326 L759,712.811497 C735.169065,736.640493 705.877314,755.62894 671.123867,769.777406 C636.37042,783.925873 596.901027,791 552.714502,791 C512.996277,791 475.636882,784.298195 440.635196,770.894385 C405.633511,757.490575 375.224701,738.502128 349.407855,713.928476 C323.591009,689.354824 303.235724,660.065455 288.34139,626.059492 C273.447055,592.053529 266,554.200743 266,512.5 L266,512.5 Z" id="Path"></path>
        </g>
    </g>
</svg>