<?xml version="1.0" encoding="UTF-8" standalone="no"?>
<svg width="1024px" height="1024px" viewBox="0 0 1024 1024" version="1.1" xmlns="http://www.w3.org/2000/svg" xmlns:xlink="http://www.w3.org/1999/xlink">
    <!-- Generator: Sketch 39.1 (31720) - http://www.bohemiancoding.com/sketch -->
    <title>Favicon</title>
    <desc>Created with Sketch.</desc>
    <defs></defs>
    <g id="Page-1" stroke="none" stroke-width="1" fill="none" fill-rule="evenodd">
        <g id="Favicon" fill="#2E77FC">
            <path d="M73,512 C73,436.696593 86.2929184,368.481589 112.879154,307.352941 C139.46539,246.224293 175.799367,193.955654 221.882175,150.545455 C267.964984,107.135255 322.244401,73.6921851 384.722054,50.2152406 C447.199708,26.7382962 513.885849,15 584.782477,15 C657.451521,15 726.1316,26.7382962 790.824773,50.2152406 C855.517947,73.6921851 909.575815,105.363437 953,145.229947 L758.92145,379.112299 C741.197293,356.078316 719.042429,338.581611 692.456193,326.621658 C665.869958,314.661705 636.18244,308.681818 603.392749,308.681818 C576.806514,308.681818 551.993066,313.332841 528.951662,322.635027 C505.910257,331.937212 485.749331,345.447327 468.468278,363.165775 C451.187225,380.884224 437.672758,402.367521 427.924471,427.61631 C418.176185,452.8651 413.302115,480.992715 413.302115,512 C413.302115,543.007285 418.397734,570.691946 428.589124,595.054813 C438.780514,619.41768 452.51653,640.458022 469.797583,658.176471 C487.078636,675.894919 507.239563,689.405034 530.280967,698.707219 C553.322371,708.009405 577.692721,712.660428 603.392749,712.660428 C639.727271,712.660428 670.96563,705.1302 697.108761,690.069519 C723.251893,675.008837 743.855917,657.290654 758.92145,636.914439 L953,869.467914 C910.462023,911.992191 858.176544,945.878216 796.141994,971.127005 C734.107444,996.375795 663.654976,1009 584.782477,1009 C513.885849,1009 447.199708,997.040227 384.722054,973.120321 C322.244401,949.200415 267.964984,915.31439 221.882175,871.46123 C175.799367,827.60807 139.46539,775.33943 112.879154,714.653743 C86.2929184,653.968057 73,586.417484 73,512 L73,512 Z" id="Path"></path>
        </g>
    </g>
</svg>