<?xml version="1.0" encoding="UTF-8" standalone="no"?>
<!-- Generator: Adobe Illustrator 16.0.0, SVG Export Plug-In . SVG Version: 6.00 Build 0)  -->

<svg
   xmlns:dc="http://purl.org/dc/elements/1.1/"
   xmlns:cc="http://creativecommons.org/ns#"
   xmlns:rdf="http://www.w3.org/1999/02/22-rdf-syntax-ns#"
   xmlns:svg="http://www.w3.org/2000/svg"
   xmlns="http://www.w3.org/2000/svg"
   xmlns:sodipodi="http://sodipodi.sourceforge.net/DTD/sodipodi-0.dtd"
   xmlns:inkscape="http://www.inkscape.org/namespaces/inkscape"
   version="1.1"
   id="Layer_1"
   x="0px"
   y="0px"
   width="844.5"
   height="844.5"
   viewBox="0 0 844.5 844.5"
   enable-background="new 0 0 3413 844.5"
   xml:space="preserve"
   inkscape:version="0.48.3.1 r9886"
   sodipodi:docname="checkdesk.svg"><metadata
   id="metadata31"><rdf:RDF><cc:Work
       rdf:about=""><dc:format>image/svg+xml</dc:format><dc:type
         rdf:resource="http://purl.org/dc/dcmitype/StillImage" /></cc:Work></rdf:RDF></metadata><defs
   id="defs29">
	
	

		
		
		
		
		
		
		
		
		
	</defs><sodipodi:namedview
   pagecolor="#ffffff"
   bordercolor="#666666"
   borderopacity="1"
   objecttolerance="10"
   gridtolerance="10"
   guidetolerance="10"
   inkscape:pageopacity="0"
   inkscape:pageshadow="2"
   inkscape:window-width="1301"
   inkscape:window-height="744"
   id="namedview27"
   showgrid="false"
   inkscape:zoom="0.23867185"
   inkscape:cx="1543.9766"
   inkscape:cy="404.40554"
   inkscape:window-x="65"
   inkscape:window-y="24"
   inkscape:window-maximized="1"
   inkscape:current-layer="Layer_1" />
<polygon
   id="polygon5"
   points="3413,844.4 3413,746.8 0,746.8 0,844.5 1594.4,844.5 1594.4,844.4 "
   transform="scale(0.24743627,1)"
   style="fill:#e2bc00;fill-opacity:1" /><path
   d="m 563.9,268.8 c -34,-38.4 -58.6,-56.5 -110.8,-56.5 -36.9,0 -67.3,13.8 -92.7,40.5 -25.3,26.8 -37.7,60.8 -37.7,101.4 0,41.3 12.3,76 37.7,102.8 25.3,26.8 56.5,39.8 94.1,39.8 57.2,0 88.3,-21.7 123.8,-70.2 l 79.6,88.3 C 607.2,582.2 535.5,616.3 443.6,616.3 369,616.3 307.5,591.7 259,541.7 c -48.5,-50 -72.4,-113 -72.4,-187.5 0,-74.6 24.6,-136.1 73.9,-186.1 50,-50 111.5,-75.3 186.1,-75.3 81.8,0 149.2,30.4 200.6,90.5 l -83.3,85.5 z"
   id="path9"
   inkscape:connector-curvature="0"
   style="fill:#e2bc00;fill-opacity:1" />
</svg>